<?xml version="1.0" encoding="UTF-8"?>
<svg id="Layer_1" data-name="Layer 1" xmlns="http://www.w3.org/2000/svg" viewBox="0 0 72 72">
  <defs>
    <style>
      .cls-1 {
        fill: #fff;
      }
    </style>
  </defs>
  <path class="cls-1" d="M11.15,54.55l15.66-31.33c2.84-5.68,8.64-9.26,14.98-9.26h13.57c.13,0,.23.1.23.23h0c0,.13-.1.23-.23.23-6.26.07-11.95,3.19-14.76,8.8l-15.92,31.84c-.1.19-.3.32-.51.32h-12.52c-.43,0-.7-.45-.51-.83Z"/>
  <path class="cls-1" d="M55.6,22.33v31.57c0,.37-.4.33-.44.08-1.08-7.24-4.73-14.52-15.8-15.59-.15-.01-.21-.15-.21-.28s.06-.26.21-.28c11.07-1.07,14.72-8.35,15.8-15.59.04-.25.44-.26.44.08Z"/>
</svg>