<?xml version="1.0" encoding="UTF-8"?>
<svg id="Layer_1" data-name="Layer 1" xmlns="http://www.w3.org/2000/svg" viewBox="0 0 339.97 39.09">
  <defs>
    <style>
      .cls-1 {
        fill: #fff;
      }

      .cls-2 {
        opacity: .8;
      }
    </style>
  </defs>
  <g>
    <path class="cls-1" d="M18.27,23.55H7.49l-1.78,5.16H0L9.74,1.59h6.32l9.74,27.12h-5.74l-1.79-5.16ZM12.88,7.88l-3.92,11.33h7.84l-3.92-11.33Z"/>
    <path class="cls-1" d="M35.97,6.87c2.83,0,5.55,1.32,7.02,3.34V0h5.51v28.71h-5.51v-3.18c-1.28,1.98-3.68,3.53-7.06,3.53-5.47,0-9.82-4.46-9.82-11.17s4.35-11.02,9.86-11.02ZM37.32,11.64c-2.91,0-5.66,2.17-5.66,6.25s2.75,6.4,5.66,6.4,5.7-2.25,5.7-6.32-2.72-6.32-5.7-6.32Z"/>
    <path class="cls-1" d="M58.08,28.71h-5.43V6.87h5.43v3.68c1.36-2.21,3.61-3.65,6.6-3.65v5.7h-1.43c-3.22,0-5.16,1.24-5.16,5.39v10.71Z"/>
    <path class="cls-1" d="M67.93,6.91h5.43v21.81h-5.43V6.91Z"/>
    <path class="cls-1" d="M85,29.06c-5.39,0-9.16-3.14-9.39-7.14h5.47c.2,1.63,1.71,2.87,3.88,2.87s3.3-.97,3.3-2.21c0-3.84-12.15-1.4-12.15-9.27,0-3.57,3.18-6.44,8.5-6.44s8.34,2.83,8.65,7.1h-5.2c-.15-1.67-1.47-2.79-3.61-2.79-2.02,0-3.06.81-3.06,2.06,0,3.92,11.91,1.47,12.06,9.35,0,3.69-3.22,6.48-8.46,6.48Z"/>
    <path class="cls-1" d="M126.05,16.84c0-3.41-1.9-5.2-4.77-5.2s-4.81,1.78-4.81,5.2v11.87h-5.43v-11.87c0-3.41-1.9-5.2-4.77-5.2s-4.85,1.78-4.85,5.2v11.87h-5.43V7.22h5.43v2.6c1.36-1.78,3.65-2.91,6.32-2.91,3.34,0,6.09,1.44,7.57,4.11,1.4-2.44,4.23-4.11,7.37-4.11,5.16,0,8.81,3.26,8.81,9.2v12.61h-5.43v-11.87Z"/>
    <path class="cls-1" d="M143.89,6.87c3.45,0,5.82,1.63,7.1,3.41v-3.39h5.47v21.83h-5.47v-3.14c-1.28,1.86-3.73,3.49-7.14,3.49-5.43,0-9.78-4.46-9.78-11.17s4.34-11.02,9.82-11.02ZM145.29,11.64c-2.91,0-5.66,2.17-5.66,6.25s2.76,6.4,5.66,6.4,5.71-2.25,5.71-6.32-2.72-6.32-5.71-6.32Z"/>
    <path class="cls-1" d="M162.24,11.68h-2.56v-4.46h2.56V1.9h5.47v5.32h4.81v4.46h-4.81v10.4c0,1.44.58,2.06,2.29,2.06h2.52v4.58h-3.42c-4.11,0-6.87-1.75-6.87-6.67v-10.36Z"/>
    <path class="cls-1" d="M185.44,29.06c-6.25,0-10.79-4.35-10.79-11.1s4.42-11.1,10.79-11.1,10.59,4.23,10.59,10.63c0,.7-.04,1.4-.15,2.09h-15.71c.27,3.18,2.44,4.97,5.16,4.97,2.33,0,3.61-1.16,4.31-2.6h5.86c-1.17,3.96-4.73,7.1-10.05,7.1ZM180.2,15.95h10.2c-.08-2.83-2.33-4.62-5.12-4.62-2.6,0-4.66,1.67-5.08,4.62Z"/>
  </g>
  <g class="cls-2">
    <path class="cls-1" d="M211.67,7c3.33,0,6.4,1.71,7.87,4.15V1.35h3.57v27.26h-3.57v-4c-1.28,2.37-4.04,4.35-7.92,4.35-5.7,0-10.09-4.46-10.09-11.06s4.39-10.9,10.13-10.9ZM212.33,10.06c-3.88,0-7.18,2.83-7.18,7.84s3.3,7.96,7.18,7.96,7.21-2.91,7.21-7.92-3.34-7.88-7.21-7.88Z"/>
    <path class="cls-1" d="M236.35,28.96c-6.05,0-10.51-4.27-10.51-11.02s4.31-10.94,10.51-10.94,10.2,4.35,10.2,10.17c0,.78-.04,1.4-.12,2.13h-16.99c.27,4.31,3.3,6.67,6.91,6.67,3.18,0,5.2-1.63,5.98-3.92h3.8c-1.09,3.88-4.5,6.91-9.78,6.91ZM229.48,16.43h13.43c.04-4.15-3.07-6.44-6.71-6.44-3.45,0-6.32,2.29-6.71,6.44Z"/>
    <path class="cls-1" d="M257.57,28.96c-4.97,0-8.46-2.72-8.69-6.6h3.65c.19,2.06,2.02,3.61,5,3.61,2.79,0,4.34-1.4,4.34-3.14,0-4.73-12.57-1.98-12.57-9.9,0-3.26,3.06-5.94,7.8-5.94s7.8,2.52,8.03,6.67h-3.53c-.15-2.13-1.78-3.68-4.62-3.68-2.6,0-4.15,1.24-4.15,2.95,0,5.05,12.34,2.29,12.49,9.9,0,3.49-3.07,6.13-7.76,6.13Z"/>
    <path class="cls-1" d="M269.13,6.83h3.53v21.79h-3.53V6.83Z"/>
    <path class="cls-1" d="M286.27,7c3.88,0,6.67,1.94,7.92,4.23v-4.42h3.57v22.27c0,5.86-3.92,10.01-10.17,10.01-5.59,0-9.58-2.83-10.28-7.37h3.49c.77,2.56,3.3,4.31,6.79,4.31,3.76,0,6.6-2.4,6.6-6.94v-4.46c-1.28,2.29-4.04,4.35-7.92,4.35-5.7,0-10.09-4.46-10.09-11.06s4.39-10.9,10.09-10.9ZM286.97,10.06c-3.88,0-7.18,2.83-7.18,7.84s3.3,7.96,7.18,7.96,7.21-2.91,7.21-7.92-3.34-7.88-7.21-7.88Z"/>
    <path class="cls-1" d="M317.35,16.58c0-4.35-2.36-6.56-5.94-6.56s-6.09,2.25-6.09,6.83v11.76h-3.53V6.83h3.53v3.55c1.4-2.21,3.96-3.41,6.83-3.41,4.93,0,8.69,3.03,8.69,9.12v12.53h-3.49v-12.03Z"/>
    <path class="cls-1" d="M332.21,28.96c-4.97,0-8.46-2.72-8.69-6.6h3.65c.19,2.06,2.02,3.61,5,3.61,2.79,0,4.34-1.4,4.34-3.14,0-4.73-12.57-1.98-12.57-9.9,0-3.26,3.06-5.94,7.8-5.94s7.8,2.52,8.03,6.67h-3.53c-.15-2.13-1.78-3.68-4.62-3.68-2.6,0-4.15,1.24-4.15,2.95,0,5.05,12.34,2.29,12.49,9.9,0,3.49-3.07,6.13-7.76,6.13Z"/>
  </g>
</svg>