<?xml version="1.0" encoding="UTF-8"?><svg id="Layer_2" xmlns="http://www.w3.org/2000/svg" viewBox="0 0 650 328.67"><defs><style>.cls-1{fill:#262426;}</style></defs><g id="Layer_1-2"><path class="cls-1" d="M75.26,67.29c.35,0,.52,.21,.52,.63s-.17,.63-.52,.63c-1.33,0-3.46-.07-6.39-.21-2.93-.14-5.07-.21-6.39-.21-1.75,0-3.81,.07-6.18,.21-2.38,.14-4.23,.21-5.56,.21-.28,0-.42-.21-.42-.63s.14-.63,.42-.63c2.03,0,3.49-.21,4.4-.63,.98-.49,1.47-1.26,1.47-2.31s-.59-2.83-1.78-5.35l-11.32-22.95H24.53l-8.07,18.13c-.91,2.1-1.36,3.98-1.36,5.66,0,2.45,.87,4.3,2.62,5.56,1.75,1.26,4.19,1.89,7.34,1.89,.35,0,.52,.21,.52,.63s-.17,.63-.52,.63c-1.26,0-3.07-.07-5.45-.21-2.66-.14-4.96-.21-6.92-.21s-4.09,.07-6.6,.21c-2.24,.14-4.09,.21-5.56,.21-.35,0-.52-.21-.52-.63s.17-.63,.52-.63c1.96,0,3.6-.38,4.93-1.15,1.33-.77,2.62-2.13,3.88-4.09,1.26-2.03,2.76-5,4.51-8.91L36.37,2.41c.14-.21,.45-.31,.94-.31s.77,.1,.84,.31l25.68,51.78c2.45,5.03,4.47,8.49,6.08,10.38,1.68,1.82,3.46,2.73,5.35,2.73ZM25.68,33.44h16.56l-8.7-17.61-7.86,17.61Zm80.34,35.53c-2.17,0-4.68-.1-7.55-.31-1.05-.07-2.38-.14-3.98-.21-1.61-.07-3.42-.1-5.45-.1l-7.44,.1c-1.33,.07-3.18,.1-5.56,.1-.14,0-.21-.21-.21-.63s.07-.63,.21-.63c2.38,0,4.09-.17,5.14-.52,1.12-.35,1.89-1.01,2.31-1.99,.42-1.05,.63-2.62,.63-4.72V11.53c0-2.1-.21-3.63-.63-4.61-.35-.98-1.08-1.64-2.2-1.99-1.12-.42-2.83-.63-5.14-.63-.14,0-.21-.21-.21-.63s.07-.63,.21-.63l5.56,.1c3.07,.14,5.52,.21,7.34,.21,2.8,0,5.62-.1,8.49-.31,3.49-.14,5.83-.21,7.02-.21,7.13,0,13.45,1.4,18.97,4.19,5.52,2.8,9.78,6.6,12.79,11.42,3.07,4.82,4.61,10.24,4.61,16.25,0,6.78-1.57,12.79-4.72,18.03-3.14,5.17-7.37,9.19-12.68,12.05-5.31,2.8-11.15,4.19-17.5,4.19Zm-1.05-2.1c4.82,0,9.08-1.15,12.79-3.46,3.77-2.31,6.71-5.69,8.8-10.17,2.1-4.54,3.14-9.96,3.14-16.25s-1.01-11.42-3.04-16.25c-1.96-4.89-4.75-8.73-8.39-11.53-3.63-2.86-7.86-4.3-12.68-4.3-2.93,0-5.21,.17-6.81,.52-1.61,.35-2.8,1.01-3.56,1.99-.7,.91-1.05,2.34-1.05,4.3V58.9c0,2.86,.73,4.93,2.2,6.18,1.47,1.19,4.33,1.78,8.59,1.78Zm111.82,.42c.21,0,.31,.21,.31,.63s-.1,.63-.31,.63h-16.87c-1.61,0-4.61-2.9-9.01-8.7-4.33-5.87-9.64-14.04-15.93-24.53-1.12,.21-2.27,.31-3.46,.31-2.59,0-4.4-.03-5.45-.1v24.53c0,2.17,.17,3.74,.52,4.72,.42,.98,1.15,1.64,2.2,1.99,1.12,.35,2.86,.52,5.24,.52,.14,0,.21,.21,.21,.63s-.07,.63-.21,.63c-2.31,0-4.09-.03-5.35-.1l-7.76-.1-7.55,.1c-1.33,.07-3.14,.1-5.45,.1-.21,0-.31-.21-.31-.63s.1-.63,.31-.63c2.38,0,4.09-.17,5.14-.52,1.12-.35,1.89-1.01,2.31-1.99,.42-1.05,.63-2.62,.63-4.72V11.53c0-2.1-.21-3.63-.63-4.61-.35-.98-1.08-1.64-2.2-1.99-1.12-.42-2.83-.63-5.14-.63-.14,0-.21-.21-.21-.63s.07-.63,.21-.63l5.45,.1c3.07,.14,5.56,.21,7.44,.21,2.1,0,4.3-.1,6.6-.31,.84-.07,1.85-.14,3.04-.21,1.19-.07,2.48-.1,3.88-.1,6.22,0,11.01,1.15,14.36,3.46,3.35,2.31,5.03,5.56,5.03,9.75,0,3.28-.98,6.39-2.93,9.33-1.96,2.93-4.51,5.31-7.65,7.13,5.73,8.8,10.52,15.72,14.36,20.75,3.91,4.96,7.37,8.56,10.38,10.8,3,2.24,5.94,3.35,8.8,3.35Zm-50.73-34.69c1.68,.28,3.7,.42,6.08,.42,4.19,0,7.13-.94,8.8-2.83,1.68-1.89,2.52-5.35,2.52-10.38,0-5.66-.94-9.57-2.83-11.74-1.89-2.24-4.54-3.35-7.97-3.35-2.52,0-4.26,.49-5.24,1.47-.91,.98-1.36,2.83-1.36,5.56v20.86Zm70.12,27.46c0,2.17,.17,3.74,.52,4.72,.35,.98,1.05,1.64,2.1,1.99,1.12,.35,2.86,.52,5.24,.52,.21,0,.31,.21,.31,.63s-.1,.63-.31,.63c-2.24,0-4.02-.03-5.35-.1l-7.76-.1-7.55,.1c-1.33,.07-3.14,.1-5.45,.1-.21,0-.31-.21-.31-.63s.1-.63,.31-.63c2.38,0,4.09-.17,5.14-.52,1.12-.35,1.89-1.01,2.31-1.99,.42-1.05,.63-2.62,.63-4.72V11.53c0-2.1-.21-3.63-.63-4.61-.42-.98-1.19-1.64-2.31-1.99-1.05-.42-2.76-.63-5.14-.63-.21,0-.31-.21-.31-.63s.1-.63,.31-.63l5.45,.1c3.07,.14,5.59,.21,7.55,.21,2.17,0,4.79-.07,7.86-.21l5.24-.1c.21,0,.31,.21,.31,.63s-.1,.63-.31,.63c-2.31,0-4.02,.21-5.14,.63-1.05,.42-1.78,1.15-2.2,2.2-.35,.98-.52,2.52-.52,4.61V60.06Zm27.3-45.91c0,2.59,.63,4.89,1.89,6.92,1.33,1.96,2.93,3.67,4.82,5.14,1.96,1.47,4.58,3.21,7.86,5.24,3.56,2.24,6.36,4.16,8.39,5.76,2.1,1.61,3.84,3.6,5.24,5.97,1.47,2.31,2.2,5.03,2.2,8.18,0,3.56-.94,6.74-2.83,9.54-1.82,2.8-4.44,5-7.86,6.6-3.35,1.54-7.2,2.31-11.53,2.31-2.93,0-5.97-.38-9.12-1.15-3.07-.77-5.42-1.71-7.02-2.83-.63-.42-.98-1.08-1.05-1.99l-.63-15.93v-.1c0-.28,.17-.42,.52-.42,.35-.07,.56,.03,.63,.31,2.31,5.8,4.93,10.55,7.86,14.25,3,3.7,6.81,5.56,11.42,5.56,3,0,5.52-.8,7.55-2.41,2.03-1.68,3.04-4.44,3.04-8.28,0-3.07-.7-5.76-2.1-8.07-1.33-2.31-3-4.23-5.03-5.76-1.96-1.54-4.65-3.42-8.07-5.66-3.35-2.17-5.97-3.98-7.86-5.45-1.89-1.54-3.49-3.39-4.82-5.56-1.33-2.24-1.99-4.82-1.99-7.76,0-3.63,1.01-6.71,3.04-9.22,2.03-2.52,4.65-4.37,7.86-5.56,3.28-1.26,6.71-1.89,10.27-1.89,2.38,0,4.75,.24,7.13,.73,2.38,.42,4.37,.98,5.97,1.68,.63,.21,1.05,.49,1.26,.84,.21,.28,.31,.66,.31,1.15l.31,14.25c0,.21-.21,.38-.63,.52-.35,.07-.56-.03-.63-.31-1.4-4.26-3.28-8.11-5.66-11.53-2.31-3.49-5.8-5.24-10.48-5.24-3.14,0-5.66,.91-7.55,2.73-1.82,1.82-2.73,4.3-2.73,7.44Zm119.95,53.14c.14,0,.21,.21,.21,.63s-.07,.63-.21,.63c-2.31,0-4.16-.03-5.56-.1l-7.55-.1-7.34,.1c-1.26,.07-3.04,.1-5.35,.1-.14,0-.21-.21-.21-.63s.07-.63,.21-.63c3.07,0,5.14-.35,6.18-1.05,1.05-.7,1.57-2.17,1.57-4.4l-.1-1.78-2.1-44.44-22.33,52.2c-.14,.28-.42,.42-.84,.42-.35,0-.66-.14-.94-.42l-26.2-51.78-.94,39.83c-.07,3.7,.63,6.53,2.1,8.49,1.54,1.96,3.81,2.93,6.81,2.93,.21,0,.31,.21,.31,.63s-.1,.63-.31,.63c-1.89,0-3.35-.03-4.4-.1l-5.76-.1-6.18,.1c-1.05,.07-2.52,.1-4.4,.1-.21,0-.31-.21-.31-.63s.1-.63,.31-.63c2.86,0,5.07-.98,6.6-2.93,1.61-1.96,2.45-4.79,2.52-8.49l.94-45.07c-1.26-2.24-2.66-3.88-4.19-4.93-1.47-1.05-3.18-1.57-5.14-1.57-.21,0-.31-.21-.31-.63s.1-.63,.31-.63l4.51,.1c.91,.07,2.1,.1,3.56,.1l4.93-.1c.56-.07,1.26-.1,2.1-.1,.91,0,1.64,.35,2.2,1.05,.56,.63,1.43,2.1,2.62,4.4l23.06,44.96,20.86-47.79c.42-.98,.87-1.64,1.36-1.99,.49-.42,1.08-.63,1.78-.63,.49,0,1.12,.03,1.89,.1,.77,.07,1.71,.1,2.83,.1l5.66-.1c.91-.07,2.27-.1,4.09-.1,.14,0,.21,.21,.21,.63s-.07,.63-.21,.63c-3.35,0-5.8,.63-7.34,1.89-1.47,1.19-2.13,3.18-1.99,5.97l2.41,47.9c.14,2.17,.38,3.74,.73,4.72,.42,.98,1.15,1.64,2.2,1.99,1.05,.35,2.76,.52,5.14,.52Zm74.44,0c.35,0,.52,.21,.52,.63s-.17,.63-.52,.63c-1.33,0-3.46-.07-6.4-.21-2.94-.14-5.07-.21-6.39-.21-1.75,0-3.81,.07-6.19,.21-2.37,.14-4.23,.21-5.56,.21-.28,0-.42-.21-.42-.63s.14-.63,.42-.63c2.03,0,3.49-.21,4.41-.63,.98-.49,1.47-1.26,1.47-2.31s-.59-2.83-1.78-5.35l-11.32-22.95h-18.97l-8.07,18.13c-.91,2.1-1.36,3.98-1.36,5.66,0,2.45,.87,4.3,2.62,5.56,1.75,1.26,4.19,1.89,7.34,1.89,.35,0,.52,.21,.52,.63s-.17,.63-.52,.63c-1.26,0-3.07-.07-5.45-.21-2.66-.14-4.96-.21-6.92-.21s-4.09,.07-6.6,.21c-2.24,.14-4.09,.21-5.56,.21-.35,0-.52-.21-.52-.63s.17-.63,.52-.63c1.96,0,3.6-.38,4.93-1.15,1.33-.77,2.62-2.13,3.88-4.09,1.26-2.03,2.76-5,4.51-8.91L418.99,2.41c.14-.21,.45-.31,.94-.31s.77,.1,.84,.31l25.68,51.78c2.45,5.03,4.47,8.49,6.08,10.38,1.68,1.82,3.46,2.73,5.35,2.73Zm-49.58-33.85h16.56l-8.7-17.61-7.86,17.61Zm61.76-28.19c-4.26,0-7.79,1.33-10.58,3.98-2.73,2.59-4.82,6.53-6.29,11.84,0,.14-.21,.21-.63,.21-.35,0-.52-.1-.52-.31,.28-2.73,.59-6.22,.94-10.48,.35-4.33,.52-7.58,.52-9.75,0-.35,.17-.52,.52-.52,.42,0,.63,.17,.63,.52,0,1.54,1.96,2.31,5.87,2.31,6.01,.21,13.03,.31,21.06,.31,4.12,0,8.49-.07,13.1-.21l7.13-.1c2.65,0,4.58-.17,5.76-.52,1.26-.35,2.06-1.05,2.41-2.1,.07-.28,.28-.42,.63-.42s.52,.14,.52,.42c-.21,2.17-.42,5.45-.63,9.85-.21,4.4-.32,7.97-.32,10.69,0,.21-.21,.31-.63,.31-.35,0-.56-.1-.63-.31-.7-5.38-2.34-9.33-4.93-11.84-2.59-2.59-6.08-3.88-10.48-3.88-1.96,0-3.43,.17-4.41,.52-.91,.35-1.53,.98-1.88,1.89-.28,.84-.42,2.2-.42,4.09V60.06c0,2.17,.21,3.74,.63,4.72,.42,.98,1.26,1.64,2.51,1.99,1.26,.35,3.25,.52,5.97,.52,.21,0,.32,.21,.32,.63s-.1,.63-.32,.63c-2.45,0-4.37-.03-5.76-.1l-8.59-.1-8.18,.1c-1.47,.07-3.49,.1-6.08,.1-.14,0-.21-.21-.21-.63s.07-.63,.21-.63c2.72,0,4.72-.17,5.97-.52,1.33-.35,2.2-1.01,2.62-1.99,.49-1.05,.73-2.62,.73-4.72V11.53c0-1.82-.17-3.14-.52-3.98-.35-.84-.98-1.43-1.89-1.78s-2.31-.52-4.19-.52Zm93.62,46.96c0-.14,.14-.21,.42-.21,.21,0,.38,.07,.52,.21,.21,.07,.31,.14,.31,.21-.7,5.31-1.05,10.17-1.05,14.57,0,.56-.1,.98-.31,1.26-.21,.21-.63,.31-1.26,.31h-45.49c-.21,0-.32-.21-.32-.63s.11-.63,.32-.63c2.38,0,4.09-.17,5.13-.52,1.12-.35,1.85-1.01,2.2-1.99,.42-1.05,.63-2.62,.63-4.72V11.53c0-2.1-.21-3.63-.63-4.61-.35-.98-1.08-1.64-2.2-1.99-1.12-.42-2.83-.63-5.13-.63-.21,0-.32-.21-.32-.63s.11-.63,.32-.63h43.6c.7,0,1.05,.31,1.05,.94l.21,13.63c0,.14-.21,.24-.63,.31-.35,.07-.56,0-.63-.21-1.68-7.97-6.54-11.95-14.57-11.95h-4.19c-2.51,0-4.29,.45-5.34,1.36-1.05,.91-1.57,2.45-1.57,4.61v21.38h10.06c7.69,0,11.53-2.59,11.53-7.76,0-.21,.17-.31,.52-.31,.42,0,.63,.1,.63,.31l-.11,9.12,.11,4.93c.14,2.24,.21,4.05,.21,5.45,0,.14-.21,.21-.63,.21s-.63-.07-.63-.21c0-6.01-3.92-9.01-11.74-9.01h-9.96v23.79c0,2.31,.42,3.91,1.26,4.82,.91,.91,2.48,1.36,4.72,1.36h5.13c9.37,0,15.3-4.54,17.82-13.63Z"/><path class="cls-1" d="M34.06,327.17c-2.17,0-4.68-.1-7.55-.31-1.05-.07-2.38-.14-3.98-.21-1.61-.07-3.42-.1-5.45-.1l-7.44,.1c-1.33,.07-3.18,.1-5.56,.1-.14,0-.21-.21-.21-.63s.07-.63,.21-.63c2.38,0,4.09-.17,5.14-.52,1.12-.35,1.89-1.01,2.31-1.99,.42-1.05,.63-2.62,.63-4.72v-48.53c0-2.1-.21-3.63-.63-4.61-.35-.98-1.08-1.64-2.2-1.99-1.12-.42-2.83-.63-5.14-.63-.14,0-.21-.21-.21-.63s.07-.63,.21-.63l5.56,.1c3.07,.14,5.52,.21,7.34,.21,2.8,0,5.62-.1,8.49-.31,3.49-.14,5.83-.21,7.02-.21,7.13,0,13.45,1.4,18.97,4.19,5.52,2.8,9.78,6.6,12.79,11.42,3.07,4.82,4.61,10.24,4.61,16.25,0,6.78-1.57,12.79-4.72,18.03-3.14,5.17-7.37,9.19-12.68,12.05-5.31,2.8-11.15,4.19-17.5,4.19Zm-1.05-2.1c4.82,0,9.08-1.15,12.79-3.46,3.77-2.31,6.71-5.69,8.8-10.17,2.1-4.54,3.14-9.96,3.14-16.25s-1.01-11.42-3.04-16.25c-1.96-4.89-4.75-8.73-8.39-11.53-3.63-2.86-7.86-4.3-12.68-4.3-2.93,0-5.21,.17-6.81,.52-1.61,.35-2.8,1.01-3.56,1.99-.7,.91-1.05,2.34-1.05,4.3v47.17c0,2.86,.73,4.93,2.2,6.18,1.47,1.19,4.33,1.78,8.59,1.78Zm89.8-14.67c0-.14,.14-.21,.42-.21,.21,0,.38,.07,.52,.21,.21,.07,.31,.14,.31,.21-.7,5.31-1.05,10.17-1.05,14.57,0,.56-.1,.98-.31,1.26-.21,.21-.63,.31-1.26,.31h-45.49c-.21,0-.31-.21-.31-.63s.1-.63,.31-.63c2.38,0,4.09-.17,5.14-.52,1.12-.35,1.85-1.01,2.2-1.99,.42-1.05,.63-2.62,.63-4.72v-48.53c0-2.1-.21-3.63-.63-4.61-.35-.98-1.08-1.64-2.2-1.99-1.12-.42-2.83-.63-5.14-.63-.21,0-.31-.21-.31-.63s.1-.63,.31-.63h43.6c.7,0,1.05,.31,1.05,.94l.21,13.63c0,.14-.21,.24-.63,.31-.35,.07-.56,0-.63-.21-1.68-7.97-6.53-11.95-14.57-11.95h-4.19c-2.52,0-4.3,.45-5.35,1.36-1.05,.91-1.57,2.45-1.57,4.61v21.38h10.06c7.69,0,11.53-2.59,11.53-7.76,0-.21,.17-.31,.52-.31,.42,0,.63,.1,.63,.31l-.1,9.12,.1,4.93c.14,2.24,.21,4.05,.21,5.45,0,.14-.21,.21-.63,.21s-.63-.07-.63-.21c0-6.01-3.91-9.01-11.74-9.01h-9.96v23.79c0,2.31,.42,3.91,1.26,4.82,.91,.91,2.48,1.36,4.72,1.36h5.14c9.36,0,15.3-4.54,17.82-13.63Zm20.7-38.05c0,2.59,.63,4.89,1.89,6.92,1.33,1.96,2.93,3.67,4.82,5.14,1.96,1.47,4.58,3.21,7.86,5.24,3.56,2.24,6.36,4.16,8.39,5.76,2.1,1.61,3.84,3.6,5.24,5.97,1.47,2.31,2.2,5.03,2.2,8.18,0,3.56-.94,6.74-2.83,9.54-1.82,2.8-4.44,5-7.86,6.6-3.35,1.54-7.2,2.31-11.53,2.31-2.93,0-5.97-.38-9.12-1.15-3.07-.77-5.42-1.71-7.02-2.83-.63-.42-.98-1.08-1.05-1.99l-.63-15.93v-.1c0-.28,.17-.42,.52-.42,.35-.07,.56,.03,.63,.31,2.31,5.8,4.93,10.55,7.86,14.25,3,3.7,6.81,5.56,11.42,5.56,3,0,5.52-.8,7.55-2.41,2.03-1.68,3.04-4.44,3.04-8.28,0-3.07-.7-5.76-2.1-8.07-1.33-2.31-3-4.23-5.03-5.76-1.96-1.54-4.65-3.42-8.07-5.66-3.35-2.17-5.97-3.98-7.86-5.45-1.89-1.54-3.49-3.39-4.82-5.56-1.33-2.24-1.99-4.82-1.99-7.76,0-3.63,1.01-6.71,3.04-9.22,2.03-2.52,4.65-4.37,7.86-5.56,3.28-1.26,6.71-1.89,10.27-1.89,2.38,0,4.75,.24,7.13,.73,2.38,.42,4.37,.98,5.97,1.68,.63,.21,1.05,.49,1.26,.84,.21,.28,.31,.66,.31,1.15l.31,14.25c0,.21-.21,.38-.63,.52-.35,.07-.56-.03-.63-.31-1.4-4.26-3.28-8.11-5.66-11.53-2.31-3.49-5.8-5.24-10.48-5.24-3.14,0-5.66,.91-7.55,2.73-1.82,1.82-2.73,4.3-2.73,7.44Zm56.23,45.91c0,2.17,.17,3.74,.52,4.72,.35,.98,1.05,1.64,2.1,1.99,1.12,.35,2.86,.52,5.24,.52,.21,0,.31,.21,.31,.63s-.1,.63-.31,.63c-2.24,0-4.02-.03-5.35-.1l-7.76-.1-7.55,.1c-1.33,.07-3.14,.1-5.45,.1-.21,0-.31-.21-.31-.63s.1-.63,.31-.63c2.38,0,4.09-.17,5.14-.52,1.12-.35,1.89-1.01,2.31-1.99,.42-1.05,.63-2.62,.63-4.72v-48.53c0-2.1-.21-3.63-.63-4.61-.42-.98-1.19-1.64-2.31-1.99-1.05-.42-2.76-.63-5.14-.63-.21,0-.31-.21-.31-.63s.1-.63,.31-.63l5.45,.1c3.07,.14,5.59,.21,7.55,.21,2.17,0,4.79-.07,7.86-.21l5.24-.1c.21,0,.31,.21,.31,.63s-.1,.63-.31,.63c-2.31,0-4.02,.21-5.14,.63-1.05,.42-1.78,1.15-2.2,2.2-.35,.98-.52,2.52-.52,4.61v48.32Zm52.88,9.75c-7.69,0-14.39-1.47-20.12-4.4-5.66-2.93-9.99-6.92-13-11.95-3-5.1-4.51-10.76-4.51-16.98,0-6.71,1.71-12.68,5.14-17.92,3.49-5.31,8.25-9.4,14.25-12.26,6.08-2.93,12.89-4.4,20.44-4.4,3.28,0,6.57,.28,9.85,.84,3.28,.56,5.94,1.33,7.97,2.31,.56,.28,.91,.56,1.05,.84,.21,.28,.35,.8,.42,1.57l1.26,13.63c0,.21-.17,.35-.52,.42-.35,.07-.59-.03-.73-.31-2.1-5.24-5.24-9.33-9.43-12.26-4.19-2.93-9.12-4.4-14.78-4.4-7.69,0-13.59,2.52-17.71,7.55-4.12,4.96-6.18,11.81-6.18,20.54,0,6.85,1.26,12.96,3.77,18.34,2.52,5.38,5.97,9.57,10.38,12.58,4.47,3,9.47,4.51,14.99,4.51,3.07,0,5.45-.31,7.13-.94,1.68-.63,2.9-1.85,3.67-3.67,.84-1.82,1.26-4.51,1.26-8.07s-.21-6.15-.63-7.55c-.42-1.47-1.36-2.45-2.83-2.93-1.4-.49-3.88-.73-7.44-.73-.42,0-.63-.28-.63-.84,0-.21,.03-.38,.1-.52,.14-.21,.28-.31,.42-.31,5.8,.35,10.45,.52,13.94,.52s7.13-.1,10.9-.31c.14,0,.24,.1,.31,.31,.14,.14,.21,.28,.21,.42,0,.49-.17,.73-.52,.73-1.4-.07-2.38,.17-2.93,.73-.56,.49-.94,1.54-1.15,3.14-.14,1.61-.21,4.4-.21,8.39,0,3.14,.1,5.38,.31,6.71,.28,1.33,.42,2.17,.42,2.52,0,.42-.1,.7-.31,.84-.14,.07-.45,.21-.94,.42-8.8,1.96-16.67,2.93-23.58,2.93Zm104.96-66.77c.14,0,.21,.21,.21,.63s-.07,.63-.21,.63c-2.8,0-4.96,1.01-6.5,3.04-1.54,1.96-2.31,4.79-2.31,8.49v54.19c0,.21-.17,.35-.52,.42-.35,.07-.59,.03-.73-.1l-49.16-57.12v42.66c0,3.7,.73,6.53,2.2,8.49,1.47,1.96,3.6,2.93,6.39,2.93,.14,0,.21,.21,.21,.63s-.07,.63-.21,.63c-1.89,0-3.32-.03-4.3-.1l-5.56-.1-6.18,.1c-1.12,.07-2.73,.1-4.82,.1-.21,0-.31-.21-.31-.63s.1-.63,.31-.63c3,0,5.31-.98,6.92-2.93,1.68-1.96,2.52-4.79,2.52-8.49v-45.91c-1.96-2.1-3.74-3.56-5.35-4.4-1.54-.84-3.14-1.26-4.82-1.26-.14,0-.21-.21-.21-.63s.07-.63,.21-.63l4.19,.1c.91,.07,2.2,.1,3.88,.1l6.71-.1c.84-.07,1.85-.1,3.04-.1,.56,0,.98,.14,1.26,.42,.28,.28,.7,.84,1.26,1.68,1.19,1.61,2.06,2.73,2.62,3.35l37.63,44.44v-37.1c0-3.7-.73-6.53-2.2-8.49-1.47-2.03-3.56-3.04-6.29-3.04-.14,0-.21-.21-.21-.63s.07-.63,.21-.63l4.3,.1c2.24,.14,4.09,.21,5.56,.21s3.28-.07,5.66-.21l4.61-.1Zm50.31,49.16c0-.14,.14-.21,.42-.21,.21,0,.38,.07,.52,.21,.21,.07,.31,.14,.31,.21-.7,5.31-1.05,10.17-1.05,14.57,0,.56-.1,.98-.31,1.26-.21,.21-.63,.31-1.26,.31h-45.49c-.21,0-.31-.21-.31-.63s.1-.63,.31-.63c2.38,0,4.09-.17,5.14-.52,1.12-.35,1.85-1.01,2.2-1.99,.42-1.05,.63-2.62,.63-4.72v-48.53c0-2.1-.21-3.63-.63-4.61-.35-.98-1.08-1.64-2.2-1.99-1.12-.42-2.83-.63-5.14-.63-.21,0-.31-.21-.31-.63s.1-.63,.31-.63h43.6c.7,0,1.05,.31,1.05,.94l.21,13.63c0,.14-.21,.24-.63,.31-.35,.07-.56,0-.63-.21-1.68-7.97-6.53-11.95-14.57-11.95h-4.19c-2.52,0-4.3,.45-5.35,1.36-1.05,.91-1.57,2.45-1.57,4.61v21.38h10.06c7.69,0,11.53-2.59,11.53-7.76,0-.21,.17-.31,.52-.31,.42,0,.63,.1,.63,.31l-.1,9.12,.1,4.93c.14,2.24,.21,4.05,.21,5.45,0,.14-.21,.21-.63,.21s-.63-.07-.63-.21c0-6.01-3.91-9.01-11.74-9.01h-9.96v23.79c0,2.31,.42,3.91,1.26,4.82,.91,.91,2.48,1.36,4.72,1.36h5.14c9.36,0,15.3-4.54,17.82-13.63Zm76.78,15.09c.21,0,.31,.21,.31,.63s-.1,.63-.31,.63h-16.88c-1.61,0-4.61-2.9-9.02-8.7-4.33-5.87-9.64-14.04-15.93-24.53-1.12,.21-2.27,.31-3.46,.31-2.58,0-4.4-.03-5.45-.1v24.53c0,2.17,.17,3.74,.52,4.72,.42,.98,1.15,1.64,2.2,1.99,1.12,.35,2.86,.52,5.24,.52,.14,0,.21,.21,.21,.63s-.07,.63-.21,.63c-2.3,0-4.09-.03-5.35-.1l-7.75-.1-7.55,.1c-1.33,.07-3.14,.1-5.45,.1-.21,0-.31-.21-.31-.63s.1-.63,.31-.63c2.38,0,4.09-.17,5.14-.52,1.12-.35,1.89-1.01,2.31-1.99,.42-1.05,.63-2.62,.63-4.72v-48.53c0-2.1-.21-3.63-.63-4.61-.35-.98-1.08-1.64-2.2-1.99-1.12-.42-2.83-.63-5.14-.63-.14,0-.21-.21-.21-.63s.07-.63,.21-.63l5.45,.1c3.07,.14,5.56,.21,7.44,.21,2.1,0,4.29-.1,6.6-.31,.84-.07,1.85-.14,3.04-.21,1.19-.07,2.48-.1,3.88-.1,6.22,0,11.01,1.15,14.36,3.46,3.36,2.31,5.03,5.56,5.03,9.75,0,3.28-.98,6.39-2.94,9.33-1.96,2.93-4.5,5.31-7.65,7.13,5.73,8.8,10.52,15.72,14.36,20.75,3.91,4.96,7.37,8.56,10.37,10.8,3,2.24,5.94,3.35,8.81,3.35Zm-50.73-34.69c1.68,.28,3.7,.42,6.08,.42,4.19,0,7.13-.94,8.8-2.83,1.68-1.89,2.52-5.35,2.52-10.38,0-5.66-.95-9.57-2.83-11.74-1.89-2.24-4.54-3.35-7.97-3.35-2.51,0-4.26,.49-5.24,1.47-.91,.98-1.36,2.83-1.36,5.56v20.86Z"/><path class="cls-1" d="M40.22,245.79v-75.47h4.4v75.47h-4.4Zm21.21,0v-75.47h4.4l45.91,67.6v-67.6h4.4v75.47h-4.4l-45.91-67.71v67.71h-4.4Zm91.84,0v-71.06h-27.67v-4.4h59.74v4.4h-27.67v71.06h-4.4Zm41.51,0v-75.47h46.12v4.4h-41.72v31.13h35.43v4.4h-35.43v31.13h41.72v4.4h-46.12Zm59.72,0v-75.47h27.78c.73,0,1.48,.03,2.25,.1,.77,.03,1.62,.14,2.57,.31,3.63,.56,6.78,1.89,9.43,3.98,2.69,2.06,4.75,4.68,6.18,7.86,1.47,3.14,2.2,6.6,2.2,10.38,0,5.38-1.47,10.1-4.4,14.15-2.93,4.05-6.92,6.64-11.95,7.76l-.84,.73h-28.82v30.19h-4.4Zm47.27,0l-14.88-30.71,3.77-2.83,16.35,33.54h-5.24Zm-42.87-34.59h23.37c.59,0,1.29-.03,2.1-.1,.84-.07,1.68-.17,2.52-.31,2.9-.56,5.33-1.71,7.28-3.46,1.99-1.75,3.49-3.86,4.51-6.34,1.01-2.52,1.52-5.19,1.52-8.02s-.51-5.49-1.52-7.97c-1.01-2.52-2.52-4.65-4.51-6.39-1.96-1.75-4.38-2.9-7.28-3.46-.84-.17-1.68-.28-2.52-.31-.8-.07-1.5-.1-2.1-.1h-23.37v36.47Zm55.5,34.59l27.46-75.47h4.72l27.46,75.47h-4.72l-26.73-73.47h3.14l-26.62,73.47h-4.72Zm10.48-19.6v-4.19h38.57v4.19h-38.57Zm87.31,21.17c-7.51,0-13.78-1.68-18.81-5.03-5-3.35-8.75-7.98-11.27-13.89-2.52-5.9-3.77-12.7-3.77-20.39s1.26-14.48,3.77-20.39c2.52-5.9,6.27-10.53,11.27-13.89,5.03-3.35,11.3-5.03,18.81-5.03,8.8,0,15.9,2.31,21.28,6.92,5.38,4.58,9.01,10.69,10.9,18.34l-4.61,1.05c-1.68-6.67-4.82-11.98-9.43-15.93-4.58-3.98-10.62-5.97-18.13-5.97-6.46,0-11.84,1.48-16.14,4.45-4.26,2.97-7.48,7.09-9.64,12.37-2.17,5.24-3.28,11.27-3.35,18.08-.07,6.81,.98,12.84,3.14,18.08,2.17,5.24,5.42,9.36,9.75,12.37,4.37,2.97,9.78,4.45,16.25,4.45,7.51,0,13.56-1.99,18.13-5.97,4.61-3.98,7.75-9.29,9.43-15.93l4.61,1.05c-1.89,7.65-5.52,13.78-10.9,18.39-5.38,4.58-12.47,6.87-21.28,6.87Zm66.17-1.57v-71.06h-27.67v-4.4h59.74v4.4h-27.67v71.06h-4.41Zm42.56,0v-75.47h4.4v75.47h-4.4Zm41.85,0l-27.46-75.47h4.72l25.05,69.07,25.16-69.07h4.72l-27.46,75.47h-4.72Zm41.12,0v-75.47h46.12v4.4h-41.72v31.13h35.43v4.4h-35.43v31.13h41.72v4.4h-46.12Z"/><path class="cls-1" d="M119.96,158.74c-5.62,0-10.55-.96-14.78-2.88-4.23-1.92-7.76-4.63-10.59-8.12-2.83-3.49-4.96-7.63-6.39-12.42-1.4-4.82-2.1-10.11-2.1-15.88,0-7.69,1.26-14.46,3.77-20.33,2.52-5.9,6.27-10.52,11.27-13.84,5.03-3.35,11.3-5.03,18.81-5.03s13.19,1.69,17.98,5.08c4.79,3.35,8.19,7.7,10.22,13.05l-4.3,1.78c-1.82-4.72-4.77-8.47-8.86-11.27-4.09-2.83-9.1-4.24-15.04-4.24-6.46,0-11.84,1.48-16.14,4.45-4.26,2.93-7.48,7.02-9.64,12.26-2.17,5.24-3.28,11.27-3.35,18.08-.07,6.81,.98,12.84,3.14,18.08,2.17,5.24,5.42,9.36,9.75,12.37,4.37,2.97,9.78,4.45,16.25,4.45s11.69-1.28,15.67-3.83c3.98-2.59,6.88-6.17,8.7-10.74,1.85-4.58,2.78-9.89,2.78-15.93h-20.12v-4.4h24.63c.1,.98,.16,1.85,.16,2.62,.03,.77,.05,1.4,.05,1.89,0,6.57-1.1,12.49-3.3,17.77-2.2,5.24-5.66,9.4-10.38,12.47-4.68,3.04-10.74,4.56-18.19,4.56Zm43.36-1.57V81.7h27.78c.73,0,1.48,.03,2.25,.1,.77,.03,1.62,.14,2.57,.31,3.63,.56,6.78,1.89,9.43,3.98,2.69,2.06,4.75,4.68,6.18,7.86,1.47,3.14,2.2,6.6,2.2,10.38,0,5.38-1.47,10.1-4.4,14.15-2.93,4.05-6.92,6.64-11.95,7.76l-.84,.73h-28.82v30.19h-4.4Zm47.27,0l-14.88-30.71,3.77-2.83,16.35,33.54h-5.24Zm-42.87-34.59h23.37c.59,0,1.29-.03,2.1-.1,.84-.07,1.68-.17,2.52-.31,2.9-.56,5.33-1.71,7.28-3.46,1.99-1.75,3.49-3.86,4.51-6.34,1.01-2.52,1.52-5.19,1.52-8.02s-.51-5.49-1.52-7.97c-1.01-2.52-2.52-4.65-4.51-6.39-1.96-1.75-4.38-2.9-7.28-3.46-.84-.17-1.68-.28-2.52-.31-.8-.07-1.5-.1-2.1-.1h-23.37v36.47Zm55.5,34.59l27.46-75.47h4.72l27.46,75.47h-4.72l-26.73-73.47h3.14l-26.62,73.47h-4.72Zm10.48-19.6v-4.19h38.57v4.19h-38.57Zm59.7,19.6V81.7h27.78c.73,0,1.48,.03,2.25,.1,.77,.03,1.62,.14,2.57,.31,3.63,.56,6.78,1.89,9.43,3.98,2.69,2.06,4.75,4.68,6.18,7.86,1.47,3.14,2.2,6.6,2.2,10.38s-.73,7.25-2.2,10.43c-1.43,3.14-3.49,5.76-6.18,7.86-2.66,2.06-5.8,3.37-9.43,3.93-.94,.14-1.8,.24-2.57,.31s-1.52,.1-2.25,.1h-23.37v30.19h-4.4Zm4.4-34.59h23.37c.59,0,1.29-.03,2.1-.1,.84-.07,1.68-.17,2.52-.31,2.9-.56,5.33-1.71,7.28-3.46,1.99-1.75,3.49-3.86,4.51-6.34,1.01-2.52,1.52-5.19,1.52-8.02s-.51-5.49-1.52-7.97c-1.01-2.52-2.52-4.65-4.51-6.39-1.96-1.75-4.38-2.9-7.28-3.46-.84-.17-1.68-.28-2.52-.31-.8-.07-1.5-.1-2.1-.1h-23.37v36.47Zm57.56,34.59V81.7h4.4v35.53h45.7v-35.53h4.4v75.47h-4.4v-35.53h-45.7v35.53h-4.4Zm71.31,0V81.7h4.4v75.47h-4.4Zm50.86,1.57c-7.51,0-13.78-1.68-18.81-5.03-5-3.35-8.76-7.98-11.27-13.89-2.51-5.9-3.77-12.7-3.77-20.39s1.26-14.48,3.77-20.39c2.51-5.9,6.27-10.53,11.27-13.89,5.03-3.35,11.3-5.03,18.81-5.03,8.81,0,15.9,2.31,21.28,6.92,5.38,4.58,9.02,10.69,10.9,18.34l-4.61,1.05c-1.68-6.67-4.82-11.98-9.43-15.93-4.58-3.98-10.62-5.97-18.13-5.97-6.46,0-11.84,1.48-16.14,4.45-4.26,2.97-7.48,7.09-9.64,12.37-2.17,5.24-3.28,11.27-3.36,18.08-.07,6.81,.98,12.84,3.14,18.08,2.17,5.24,5.42,9.36,9.75,12.37,4.37,2.97,9.78,4.45,16.25,4.45,7.51,0,13.56-1.99,18.13-5.97,4.61-3.98,7.75-9.29,9.43-15.93l4.61,1.05c-1.88,7.65-5.52,13.78-10.9,18.39-5.38,4.58-12.47,6.87-21.28,6.87Z"/><path class="cls-1" d="M536.47,157.95c-2.1,0-4.03-.3-5.76-.89-1.73-.59-3.18-1.51-4.36-2.77-.89-.94-1.56-2.02-2.01-3.24-.45-1.22-.7-2.49-.75-3.81-.02-1.24,.15-2.49,.52-3.76,.38-1.27,.99-2.4,1.83-3.39,.61-.77,1.3-1.39,2.09-1.88,.8-.49,1.62-.89,2.45-1.2-1.48-1.5-2.62-2.84-3.42-4.05-.78-1.22-1.17-2.74-1.17-4.57s.43-3.41,1.28-4.91c.85-1.51,2.04-2.66,3.57-3.44,.89-.45,1.8-.77,2.74-.97,.95-.19,1.9-.29,2.84-.29,1.26,0,2.51,.16,3.76,.47,1.25,.31,2.33,.8,3.23,1.46,.63,.42,1.19,.93,1.7,1.54,.51,.59,.92,1.23,1.23,1.9l-2.04,.94c-.45-1.04-1.18-1.91-2.19-2.61-.75-.52-1.6-.9-2.56-1.15-.96-.24-1.93-.37-2.92-.37-1.73,0-3.31,.35-4.75,1.04-1.17,.59-2.05,1.44-2.66,2.53-.59,1.08-.89,2.32-.89,3.73,0,1.2,.18,2.2,.55,3,.37,.78,.95,1.66,1.75,2.64,.42,.47,.87,.92,1.35,1.36,.49,.42,.98,.85,1.46,1.31l13.52,12.58c.11-.57,.17-1.1,.21-1.59,.03-.5,.05-1.02,.05-1.54l-.05-6.11h2.35v5.06c0,1.67-.07,2.94-.21,3.81-.12,.87-.28,1.58-.47,2.14l4.96,4.59-1.51,1.62-4.49-4.23c-.38,.7-.95,1.37-1.7,2.01-.75,.63-1.49,1.14-2.22,1.54-1.06,.57-2.22,.96-3.49,1.15-1.25,.21-2.53,.31-3.81,.31Zm-.1-2.19c1.29,0,2.44-.08,3.47-.23,1.03-.17,1.99-.53,2.9-1.07,1.1-.68,1.87-1.29,2.32-1.83,.46-.54,.79-.99,1.02-1.36l-13.72-12.53c-.91,.26-1.77,.63-2.59,1.1-.8,.47-1.49,1.04-2.06,1.72-.63,.75-1.09,1.62-1.38,2.61-.28,.97-.41,1.98-.39,3.03,.03,1.04,.21,2.04,.52,3,.33,.94,.84,1.77,1.52,2.48,.94,1.06,2.16,1.84,3.68,2.35,1.53,.49,3.11,.73,4.73,.73Z"/></g></svg>