<?xml version="1.0" encoding="utf-8"?>
<!-- Generator: Adobe Illustrator 26.5.0, SVG Export Plug-In . SVG Version: 6.00 Build 0)  -->
<svg version="1.1" id="Layer_2_00000135656429800735096820000000463851240246535297_"
	 xmlns="http://www.w3.org/2000/svg" xmlns:xlink="http://www.w3.org/1999/xlink" x="0px" y="0px" viewBox="0 0 650 328.7"
	 style="enable-background:new 0 0 650 328.7;" xml:space="preserve">
<style type="text/css">
	.st0{fill:#262426;}
	.st1{fill:none;stroke:#262426;stroke-miterlimit:10;}
</style>
<g id="Layer_1-2">
	<path class="st0" d="M75.3,67.3c0.3,0,0.5,0.2,0.5,0.6s-0.2,0.6-0.5,0.6c-1.3,0-3.5-0.1-6.4-0.2s-5.1-0.2-6.4-0.2
		c-1.8,0-3.8,0.1-6.2,0.2c-2.4,0.1-4.2,0.2-5.6,0.2c-0.3,0-0.4-0.2-0.4-0.6s0.1-0.6,0.4-0.6c2,0,3.5-0.2,4.4-0.6
		c1-0.5,1.5-1.3,1.5-2.3S56,61.5,54.8,59l-11.3-23h-19l-8.1,18.1c-0.9,2.1-1.4,4-1.4,5.7c0,2.5,0.9,4.3,2.6,5.6s4.2,1.9,7.3,1.9
		c0.4,0,0.5,0.2,0.5,0.6s-0.2,0.6-0.5,0.6c-1.3,0-3.1-0.1-5.5-0.2c-2.7-0.1-5-0.2-6.9-0.2s-4.1,0.1-6.6,0.2
		c-2.2,0.1-4.1,0.2-5.6,0.2c-0.3,0-0.5-0.2-0.5-0.6s0.2-0.6,0.5-0.6c2,0,3.6-0.4,4.9-1.2c1.3-0.8,2.6-2.1,3.9-4.1
		c1.3-2,2.8-5,4.5-8.9L36.4,2.4c0.1-0.2,0.5-0.3,0.9-0.3s0.8,0.1,0.8,0.3l25.7,51.8c2.5,5,4.5,8.5,6.1,10.4
		C71.6,66.4,73.4,67.3,75.3,67.3L75.3,67.3z M25.7,33.4h16.6l-8.7-17.6C33.5,15.8,25.7,33.4,25.7,33.4z M106,69
		c-2.2,0-4.7-0.1-7.6-0.3c-1.1-0.1-2.4-0.1-4-0.2c-1.6-0.1-3.4-0.1-5.4-0.1l-7.4,0.1c-1.3,0.1-3.2,0.1-5.6,0.1
		c-0.1,0-0.2-0.2-0.2-0.6s0.1-0.6,0.2-0.6c2.4,0,4.1-0.2,5.1-0.5c1.1-0.3,1.9-1,2.3-2c0.4-1,0.6-2.6,0.6-4.7V11.5
		c0-2.1-0.2-3.6-0.6-4.6c-0.3-1-1.1-1.6-2.2-2c-1.1-0.4-2.8-0.6-5.1-0.6c-0.1,0-0.2-0.2-0.2-0.6S76,3,76.1,3l5.6,0.1
		c3.1,0.1,5.5,0.2,7.3,0.2c2.8,0,5.6-0.1,8.5-0.3c3.5-0.1,5.8-0.2,7-0.2c7.1,0,13.4,1.4,19,4.2c5.5,2.8,9.8,6.6,12.8,11.4
		c3.1,4.8,4.6,10.2,4.6,16.2c0,6.8-1.6,12.8-4.7,18c-3.1,5.2-7.4,9.2-12.7,12.1C118.2,67.6,112.4,69,106,69L106,69z M105,66.9
		c4.8,0,9.1-1.2,12.8-3.5c3.8-2.3,6.7-5.7,8.8-10.2c2.1-4.5,3.1-10,3.1-16.2s-1-11.4-3-16.2c-2-4.9-4.8-8.7-8.4-11.5
		c-3.6-2.9-7.9-4.3-12.7-4.3c-2.9,0-5.2,0.2-6.8,0.5c-1.6,0.3-2.8,1-3.6,2c-0.7,0.9-1.1,2.3-1.1,4.3v47.2c0,2.9,0.7,4.9,2.2,6.2
		C97.8,66.3,100.7,66.9,105,66.9L105,66.9z M216.8,67.3c0.2,0,0.3,0.2,0.3,0.6s-0.1,0.6-0.3,0.6h-16.9c-1.6,0-4.6-2.9-9-8.7
		c-4.3-5.9-9.6-14-15.9-24.5c-1.1,0.2-2.3,0.3-3.5,0.3c-2.6,0-4.4,0-5.4-0.1v24.5c0,2.2,0.2,3.7,0.5,4.7c0.4,1,1.1,1.6,2.2,2
		c1.1,0.3,2.9,0.5,5.2,0.5c0.1,0,0.2,0.2,0.2,0.6s-0.1,0.6-0.2,0.6c-2.3,0-4.1,0-5.4-0.1l-7.8-0.1l-7.6,0.1
		c-1.3,0.1-3.1,0.1-5.4,0.1c-0.2,0-0.3-0.2-0.3-0.6s0.1-0.6,0.3-0.6c2.4,0,4.1-0.2,5.1-0.5c1.1-0.3,1.9-1,2.3-2
		c0.4-1,0.6-2.6,0.6-4.7V11.5c0-2.1-0.2-3.6-0.6-4.6c-0.4-1-1.1-1.6-2.2-2c-1.1-0.4-2.8-0.6-5.1-0.6c-0.1,0-0.2-0.2-0.2-0.6
		S147.9,3,148,3l5.4,0.1c3.1,0.1,5.6,0.2,7.4,0.2c2.1,0,4.3-0.1,6.6-0.3c0.8-0.1,1.9-0.1,3-0.2c1.2-0.1,2.5-0.1,3.9-0.1
		c6.2,0,11,1.2,14.4,3.5s5,5.6,5,9.8c0,3.3-1,6.4-2.9,9.3c-2,2.9-4.5,5.3-7.6,7.1c5.7,8.8,10.5,15.7,14.4,20.8
		c3.9,5,7.4,8.6,10.4,10.8C211,66.2,213.9,67.3,216.8,67.3L216.8,67.3z M166.1,32.6c1.7,0.3,3.7,0.4,6.1,0.4c4.2,0,7.1-0.9,8.8-2.8
		c1.7-1.9,2.5-5.4,2.5-10.4c0-5.7-0.9-9.6-2.8-11.7c-1.9-2.2-4.5-3.3-8-3.3c-2.5,0-4.3,0.5-5.2,1.5c-0.9,1-1.4,2.8-1.4,5.6V32.6
		L166.1,32.6z M236.2,60.1c0,2.2,0.2,3.7,0.5,4.7c0.4,1,1.1,1.6,2.1,2c1.1,0.3,2.9,0.5,5.2,0.5c0.2,0,0.3,0.2,0.3,0.6
		s-0.1,0.6-0.3,0.6c-2.2,0-4,0-5.4-0.1l-7.8-0.1l-7.6,0.1c-1.3,0.1-3.1,0.1-5.4,0.1c-0.2,0-0.3-0.2-0.3-0.6s0.1-0.6,0.3-0.6
		c2.4,0,4.1-0.2,5.1-0.5c1.1-0.3,1.9-1,2.3-2c0.4-1,0.6-2.6,0.6-4.7V11.5c0-2.1-0.2-3.6-0.6-4.6s-1.2-1.6-2.3-2
		c-1.1-0.4-2.8-0.6-5.1-0.6c-0.2,0-0.3-0.2-0.3-0.6s0.1-0.6,0.3-0.6l5.4,0.1c3.1,0.1,5.6,0.2,7.6,0.2c2.2,0,4.8-0.1,7.9-0.2L244,3
		c0.2,0,0.3,0.2,0.3,0.6s-0.1,0.6-0.3,0.6c-2.3,0-4,0.2-5.1,0.6c-1.1,0.4-1.8,1.2-2.2,2.2c-0.4,1-0.5,2.5-0.5,4.6L236.2,60.1
		L236.2,60.1z M263.5,14.2c0,2.6,0.6,4.9,1.9,6.9c1.3,2,2.9,3.7,4.8,5.1c2,1.5,4.6,3.2,7.9,5.2c3.6,2.2,6.4,4.2,8.4,5.8
		c2.1,1.6,3.8,3.6,5.2,6c1.5,2.3,2.2,5,2.2,8.2c0,3.6-0.9,6.7-2.8,9.5c-1.8,2.8-4.4,5-7.9,6.6c-3.4,1.5-7.2,2.3-11.5,2.3
		c-2.9,0-6-0.4-9.1-1.2c-3.1-0.8-5.4-1.7-7-2.8c-0.6-0.4-1-1.1-1.1-2l-0.6-15.9v-0.1c0-0.3,0.2-0.4,0.5-0.4c0.4-0.1,0.6,0,0.6,0.3
		c2.3,5.8,4.9,10.5,7.9,14.2c3,3.7,6.8,5.6,11.4,5.6c3,0,5.5-0.8,7.5-2.4c2-1.7,3-4.4,3-8.3c0-3.1-0.7-5.8-2.1-8.1
		c-1.3-2.3-3-4.2-5-5.8c-2-1.5-4.6-3.4-8.1-5.7c-3.4-2.2-6-4-7.9-5.5c-1.9-1.5-3.5-3.4-4.8-5.6c-1.3-2.2-2-4.8-2-7.8
		c0-3.6,1-6.7,3-9.2c2-2.5,4.6-4.4,7.9-5.6c3.3-1.3,6.7-1.9,10.3-1.9c2.4,0,4.8,0.2,7.1,0.7c2.4,0.4,4.4,1,6,1.7
		c0.6,0.2,1,0.5,1.3,0.8c0.2,0.3,0.3,0.7,0.3,1.2l0.3,14.2c0,0.2-0.2,0.4-0.6,0.5c-0.4,0.1-0.6,0-0.6-0.3c-1.4-4.3-3.3-8.1-5.7-11.5
		c-2.3-3.5-5.8-5.2-10.5-5.2c-3.1,0-5.7,0.9-7.5,2.7C264.4,8.5,263.5,11,263.5,14.2L263.5,14.2z M383.4,67.3c0.1,0,0.2,0.2,0.2,0.6
		s-0.1,0.6-0.2,0.6c-2.3,0-4.2,0-5.6-0.1l-7.5-0.1l-7.3,0.1c-1.3,0.1-3,0.1-5.4,0.1c-0.1,0-0.2-0.2-0.2-0.6s0.1-0.6,0.2-0.6
		c3.1,0,5.1-0.3,6.2-1.1c1-0.7,1.6-2.2,1.6-4.4l-0.1-1.8l-2.1-44.4l-22.3,52.2c-0.1,0.3-0.4,0.4-0.8,0.4c-0.4,0-0.7-0.1-0.9-0.4
		L312.9,16l-0.9,39.8c-0.1,3.7,0.6,6.5,2.1,8.5c1.5,2,3.8,2.9,6.8,2.9c0.2,0,0.3,0.2,0.3,0.6s-0.1,0.6-0.3,0.6c-1.9,0-3.4,0-4.4-0.1
		l-5.8-0.1l-6.2,0.1c-1,0.1-2.5,0.1-4.4,0.1c-0.2,0-0.3-0.2-0.3-0.6s0.1-0.6,0.3-0.6c2.9,0,5.1-1,6.6-2.9c1.6-2,2.5-4.8,2.5-8.5
		l0.9-45.1c-1.3-2.2-2.7-3.9-4.2-4.9c-1.5-1-3.2-1.6-5.1-1.6c-0.2,0-0.3-0.2-0.3-0.6s0.1-0.6,0.3-0.6l4.5,0.1
		c0.9,0.1,2.1,0.1,3.6,0.1l4.9-0.1c0.6-0.1,1.3-0.1,2.1-0.1c0.9,0,1.6,0.3,2.2,1.1c0.6,0.6,1.4,2.1,2.6,4.4l23.1,45l20.9-47.8
		c0.4-1,0.9-1.6,1.4-2c0.5-0.4,1.1-0.6,1.8-0.6c0.5,0,1.1,0,1.9,0.1c0.8,0.1,1.7,0.1,2.8,0.1l5.7-0.1c0.9-0.1,2.3-0.1,4.1-0.1
		c0.1,0,0.2,0.2,0.2,0.6s-0.1,0.6-0.2,0.6c-3.4,0-5.8,0.6-7.3,1.9c-1.5,1.2-2.1,3.2-2,6l2.4,47.9c0.1,2.2,0.4,3.7,0.7,4.7
		c0.4,1,1.1,1.6,2.2,2C379.3,67.1,381.1,67.3,383.4,67.3L383.4,67.3z M457.9,67.3c0.4,0,0.5,0.2,0.5,0.6s-0.2,0.6-0.5,0.6
		c-1.3,0-3.5-0.1-6.4-0.2s-5.1-0.2-6.4-0.2c-1.8,0-3.8,0.1-6.2,0.2c-2.4,0.1-4.2,0.2-5.6,0.2c-0.3,0-0.4-0.2-0.4-0.6
		s0.1-0.6,0.4-0.6c2,0,3.5-0.2,4.4-0.6c1-0.5,1.5-1.3,1.5-2.3s-0.6-2.8-1.8-5.3l-11.3-23h-19l-8.1,18.1c-0.9,2.1-1.4,4-1.4,5.7
		c0,2.5,0.9,4.3,2.6,5.6s4.2,1.9,7.3,1.9c0.4,0,0.5,0.2,0.5,0.6s-0.2,0.6-0.5,0.6c-1.3,0-3.1-0.1-5.5-0.2c-2.7-0.1-5-0.2-6.9-0.2
		s-4.1,0.1-6.6,0.2c-2.2,0.1-4.1,0.2-5.6,0.2c-0.4,0-0.5-0.2-0.5-0.6s0.2-0.6,0.5-0.6c2,0,3.6-0.4,4.9-1.2c1.3-0.8,2.6-2.1,3.9-4.1
		c1.3-2,2.8-5,4.5-8.9L419,2.4c0.1-0.2,0.5-0.3,0.9-0.3s0.8,0.1,0.8,0.3l25.7,51.8c2.5,5,4.5,8.5,6.1,10.4
		C454.2,66.4,456,67.3,457.9,67.3L457.9,67.3z M408.3,33.4h16.6l-8.7-17.6L408.3,33.4z M470,5.3c-4.3,0-7.8,1.3-10.6,4
		c-2.7,2.6-4.8,6.5-6.3,11.8c0,0.1-0.2,0.2-0.6,0.2c-0.4,0-0.5-0.1-0.5-0.3c0.3-2.7,0.6-6.2,0.9-10.5c0.4-4.3,0.5-7.6,0.5-9.8
		c0-0.3,0.2-0.5,0.5-0.5c0.4,0,0.6,0.2,0.6,0.5c0,1.5,2,2.3,5.9,2.3c6,0.2,13,0.3,21.1,0.3c4.1,0,8.5-0.1,13.1-0.2l7.1-0.1
		c2.6,0,4.6-0.2,5.8-0.5c1.3-0.3,2.1-1,2.4-2.1c0.1-0.3,0.3-0.4,0.6-0.4s0.5,0.1,0.5,0.4c-0.2,2.2-0.4,5.4-0.6,9.9s-0.3,8-0.3,10.7
		c0,0.2-0.2,0.3-0.6,0.3c-0.4,0-0.6-0.1-0.6-0.3c-0.7-5.4-2.3-9.3-4.9-11.8c-2.6-2.6-6.1-3.9-10.5-3.9c-2,0-3.4,0.2-4.4,0.5
		c-0.9,0.3-1.5,1-1.9,1.9c-0.3,0.8-0.4,2.2-0.4,4.1v48.3c0,2.2,0.2,3.7,0.6,4.7c0.4,1,1.3,1.6,2.5,2c1.3,0.3,3.2,0.5,6,0.5
		c0.2,0,0.3,0.2,0.3,0.6s-0.1,0.6-0.3,0.6c-2.5,0-4.4,0-5.8-0.1l-8.6-0.1l-8.2,0.1c-1.5,0.1-3.5,0.1-6.1,0.1c-0.1,0-0.2-0.2-0.2-0.6
		s0.1-0.6,0.2-0.6c2.7,0,4.7-0.2,6-0.5c1.3-0.3,2.2-1,2.6-2c0.5-1,0.7-2.6,0.7-4.7V11.5c0-1.8-0.2-3.1-0.5-4c-0.4-0.8-1-1.4-1.9-1.8
		S471.9,5.2,470,5.3L470,5.3z M563.7,52.2c0-0.1,0.1-0.2,0.4-0.2c0.2,0,0.4,0.1,0.5,0.2c0.2,0.1,0.3,0.1,0.3,0.2
		c-0.7,5.3-1,10.2-1,14.6c0,0.6-0.1,1-0.3,1.3c-0.2,0.2-0.6,0.3-1.3,0.3h-45.5c-0.2,0-0.3-0.2-0.3-0.6s0.1-0.6,0.3-0.6
		c2.4,0,4.1-0.2,5.1-0.5c1.1-0.3,1.8-1,2.2-2c0.4-1,0.6-2.6,0.6-4.7V11.5c0-2.1-0.2-3.6-0.6-4.6c-0.3-1-1.1-1.6-2.2-2
		c-1.1-0.4-2.8-0.6-5.1-0.6c-0.2,0-0.3-0.2-0.3-0.6s0.1-0.6,0.3-0.6h43.6c0.7,0,1,0.3,1,0.9l0.2,13.6c0,0.1-0.2,0.2-0.6,0.3
		c-0.3,0.1-0.6,0-0.6-0.2c-1.7-8-6.5-11.9-14.6-11.9h-4.2c-2.5,0-4.3,0.4-5.3,1.4c-1,0.9-1.6,2.5-1.6,4.6v21.4h10.1
		c7.7,0,11.5-2.6,11.5-7.8c0-0.2,0.2-0.3,0.5-0.3c0.4,0,0.6,0.1,0.6,0.3l-0.1,9.1l0.1,4.9c0.1,2.2,0.2,4,0.2,5.5
		c0,0.1-0.2,0.2-0.6,0.2s-0.6-0.1-0.6-0.2c0-6-3.9-9-11.7-9h-10v23.8c0,2.3,0.4,3.9,1.3,4.8c0.9,0.9,2.5,1.4,4.7,1.4h5.1
		C555.2,65.8,561.1,61.3,563.7,52.2L563.7,52.2z"/>
	<path class="st0" d="M34.1,327.2c-2.2,0-4.7-0.1-7.5-0.3c-1-0.1-2.4-0.1-4-0.2c-1.6-0.1-3.4-0.1-5.5-0.1l-7.4,0.1
		c-1.3,0.1-3.2,0.1-5.6,0.1c-0.1,0-0.2-0.2-0.2-0.6s0.1-0.6,0.2-0.6c2.4,0,4.1-0.2,5.1-0.5c1.1-0.4,1.9-1,2.3-2
		c0.4-1,0.6-2.6,0.6-4.7v-48.5c0-2.1-0.2-3.6-0.6-4.6c-0.4-1-1.1-1.6-2.2-2c-1.1-0.4-2.8-0.6-5.1-0.6c-0.1,0-0.2-0.2-0.2-0.6
		s0.1-0.6,0.2-0.6l5.6,0.1c3.1,0.1,5.5,0.2,7.3,0.2c2.8,0,5.6-0.1,8.5-0.3c3.5-0.1,5.8-0.2,7-0.2c7.1,0,13.5,1.4,19,4.2
		c5.5,2.8,9.8,6.6,12.8,11.4c3.1,4.8,4.6,10.2,4.6,16.2c0,6.8-1.6,12.8-4.7,18c-3.1,5.2-7.4,9.2-12.7,12
		C46.3,325.8,40.4,327.2,34.1,327.2L34.1,327.2z M33,325.1c4.8,0,9.1-1.1,12.8-3.5c3.8-2.3,6.7-5.7,8.8-10.2
		c2.1-4.5,3.1-10,3.1-16.2s-1-11.4-3-16.2c-2-4.9-4.8-8.7-8.4-11.5c-3.6-2.9-7.9-4.3-12.7-4.3c-2.9,0-5.2,0.2-6.8,0.5
		c-1.6,0.4-2.8,1-3.6,2c-0.7,0.9-1,2.3-1,4.3v47.2c0,2.9,0.7,4.9,2.2,6.2C25.9,324.5,28.7,325,33,325.1L33,325.1z M122.8,310.4
		c0-0.1,0.1-0.2,0.4-0.2c0.2,0,0.4,0.1,0.5,0.2c0.2,0.1,0.3,0.1,0.3,0.2c-0.7,5.3-1.1,10.2-1.1,14.6c0,0.6-0.1,1-0.3,1.3
		c-0.2,0.2-0.6,0.3-1.3,0.3H75.9c-0.2,0-0.3-0.2-0.3-0.6s0.1-0.6,0.3-0.6c2.4,0,4.1-0.2,5.1-0.5c1.1-0.4,1.8-1,2.2-2
		c0.4-1,0.6-2.6,0.6-4.7v-48.5c0-2.1-0.2-3.6-0.6-4.6c-0.3-1-1.1-1.6-2.2-2c-1.1-0.4-2.8-0.6-5.1-0.6c-0.2,0-0.3-0.2-0.3-0.6
		s0.1-0.6,0.3-0.6h43.6c0.7,0,1.1,0.3,1.1,0.9l0.2,13.6c0,0.1-0.2,0.2-0.6,0.3c-0.3,0.1-0.6,0-0.6-0.2c-1.7-8-6.5-12-14.6-12h-4.2
		c-2.5,0-4.3,0.5-5.3,1.4c-1.1,0.9-1.6,2.5-1.6,4.6v21.4h10.1c7.7,0,11.5-2.6,11.5-7.8c0-0.2,0.2-0.3,0.5-0.3c0.4,0,0.6,0.1,0.6,0.3
		l-0.1,9.1l0.1,4.9c0.1,2.2,0.2,4,0.2,5.5c0,0.1-0.2,0.2-0.6,0.2s-0.6-0.1-0.6-0.2c0-6-3.9-9-11.7-9h-10v23.8c0,2.3,0.4,3.9,1.3,4.8
		c0.9,0.9,2.5,1.4,4.7,1.4h5.1C114.3,324,120.3,319.5,122.8,310.4L122.8,310.4z M143.5,272.4c0,2.6,0.6,4.9,1.9,6.9
		c1.3,2,2.9,3.7,4.8,5.1c2,1.5,4.6,3.2,7.9,5.2c3.6,2.2,6.4,4.2,8.4,5.8c2.1,1.6,3.8,3.6,5.2,6c1.5,2.3,2.2,5,2.2,8.2
		c0,3.6-0.9,6.7-2.8,9.5c-1.8,2.8-4.4,5-7.9,6.6c-3.4,1.5-7.2,2.3-11.5,2.3c-2.9,0-6-0.4-9.1-1.1c-3.1-0.8-5.4-1.7-7-2.8
		c-0.6-0.4-1-1.1-1.1-2l-0.6-15.9V306c0-0.3,0.2-0.4,0.5-0.4c0.4-0.1,0.6,0,0.6,0.3c2.3,5.8,4.9,10.5,7.9,14.2
		c3,3.7,6.8,5.6,11.4,5.6c3,0,5.5-0.8,7.6-2.4c2-1.7,3-4.4,3-8.3c0-3.1-0.7-5.8-2.1-8.1c-1.3-2.3-3-4.2-5-5.8
		c-2-1.5-4.6-3.4-8.1-5.7c-3.4-2.2-6-4-7.9-5.5c-1.9-1.5-3.5-3.4-4.8-5.6c-1.3-2.2-2-4.8-2-7.8c0-3.6,1-6.7,3-9.2
		c2-2.5,4.6-4.4,7.9-5.6c3.3-1.3,6.7-1.9,10.3-1.9c2.4,0,4.8,0.2,7.1,0.7c2.4,0.4,4.4,1,6,1.7c0.6,0.2,1.1,0.5,1.3,0.8
		c0.2,0.3,0.3,0.7,0.3,1.1l0.3,14.2c0,0.2-0.2,0.4-0.6,0.5c-0.4,0.1-0.6,0-0.6-0.3c-1.4-4.3-3.3-8.1-5.7-11.5
		c-2.3-3.5-5.8-5.2-10.5-5.2c-3.1,0-5.7,0.9-7.6,2.7C144.4,266.7,143.5,269.2,143.5,272.4L143.5,272.4z M199.7,318.3
		c0,2.2,0.2,3.7,0.5,4.7s1.1,1.6,2.1,2c1.1,0.4,2.9,0.5,5.2,0.5c0.2,0,0.3,0.2,0.3,0.6s-0.1,0.6-0.3,0.6c-2.2,0-4,0-5.4-0.1
		l-7.8-0.1l-7.6,0.1c-1.3,0.1-3.1,0.1-5.4,0.1c-0.2,0-0.3-0.2-0.3-0.6s0.1-0.6,0.3-0.6c2.4,0,4.1-0.2,5.1-0.5c1.1-0.4,1.9-1,2.3-2
		c0.4-1,0.6-2.6,0.6-4.7v-48.5c0-2.1-0.2-3.6-0.6-4.6c-0.4-1-1.2-1.6-2.3-2c-1.1-0.4-2.8-0.6-5.1-0.6c-0.2,0-0.3-0.2-0.3-0.6
		s0.1-0.6,0.3-0.6l5.4,0.1c3.1,0.1,5.6,0.2,7.6,0.2c2.2,0,4.8-0.1,7.9-0.2l5.2-0.1c0.2,0,0.3,0.2,0.3,0.6s-0.1,0.6-0.3,0.6
		c-2.3,0-4,0.2-5.1,0.6c-1.1,0.4-1.8,1.1-2.2,2.2c-0.4,1-0.5,2.5-0.5,4.6L199.7,318.3L199.7,318.3z M252.6,328
		c-7.7,0-14.4-1.5-20.1-4.4c-5.7-2.9-10-6.9-13-12c-3-5.1-4.5-10.8-4.5-17c0-6.7,1.7-12.7,5.1-17.9c3.5-5.3,8.2-9.4,14.2-12.3
		c6.1-2.9,12.9-4.4,20.4-4.4c3.3,0,6.6,0.3,9.8,0.8s5.9,1.3,8,2.3c0.6,0.3,0.9,0.6,1,0.8c0.2,0.3,0.4,0.8,0.4,1.6l1.3,13.6
		c0,0.2-0.2,0.4-0.5,0.4c-0.4,0.1-0.6,0-0.7-0.3c-2.1-5.2-5.2-9.3-9.4-12.3c-4.2-2.9-9.1-4.4-14.8-4.4c-7.7,0-13.6,2.5-17.7,7.5
		c-4.1,5-6.2,11.8-6.2,20.5c0,6.9,1.3,13,3.8,18.3c2.5,5.4,6,9.6,10.4,12.6c4.5,3,9.5,4.5,15,4.5c3.1,0,5.5-0.3,7.1-0.9
		s2.9-1.9,3.7-3.7c0.8-1.8,1.3-4.5,1.3-8.1s-0.2-6.1-0.6-7.5c-0.4-1.5-1.4-2.5-2.8-2.9c-1.4-0.5-3.9-0.7-7.4-0.7
		c-0.4,0-0.6-0.3-0.6-0.8c0-0.2,0-0.4,0.1-0.5c0.1-0.2,0.3-0.3,0.4-0.3c5.8,0.4,10.5,0.5,13.9,0.5s7.1-0.1,10.9-0.3
		c0.1,0,0.2,0.1,0.3,0.3c0.1,0.1,0.2,0.3,0.2,0.4c0,0.5-0.2,0.7-0.5,0.7c-1.4-0.1-2.4,0.2-2.9,0.7c-0.6,0.5-0.9,1.5-1.1,3.1
		c-0.1,1.6-0.2,4.4-0.2,8.4c0,3.1,0.1,5.4,0.3,6.7c0.3,1.3,0.4,2.2,0.4,2.5c0,0.4-0.1,0.7-0.3,0.8c-0.1,0.1-0.5,0.2-0.9,0.4
		C267.4,327.1,259.6,328.1,252.6,328L252.6,328z M357.6,261.2c0.1,0,0.2,0.2,0.2,0.6s-0.1,0.6-0.2,0.6c-2.8,0-5,1-6.5,3
		c-1.5,2-2.3,4.8-2.3,8.5v54.2c0,0.2-0.2,0.4-0.5,0.4c-0.4,0.1-0.6,0-0.7-0.1l-49.2-57.1v42.7c0,3.7,0.7,6.5,2.2,8.5
		s3.6,2.9,6.4,2.9c0.1,0,0.2,0.2,0.2,0.6s-0.1,0.6-0.2,0.6c-1.9,0-3.3,0-4.3-0.1l-5.6-0.1l-6.2,0.1c-1.1,0.1-2.7,0.1-4.8,0.1
		c-0.2,0-0.3-0.2-0.3-0.6s0.1-0.6,0.3-0.6c3,0,5.3-1,6.9-2.9c1.7-2,2.5-4.8,2.5-8.5v-45.9c-2-2.1-3.7-3.6-5.4-4.4
		c-1.5-0.8-3.1-1.3-4.8-1.3c-0.1,0-0.2-0.2-0.2-0.6s0.1-0.6,0.2-0.6l4.2,0.1c0.9,0.1,2.2,0.1,3.9,0.1l6.7-0.1c0.8-0.1,1.9-0.1,3-0.1
		c0.6,0,1,0.1,1.3,0.4s0.7,0.8,1.3,1.7c1.2,1.6,2.1,2.7,2.6,3.4l37.6,44.4V274c0-3.7-0.7-6.5-2.2-8.5c-1.5-2-3.6-3-6.3-3
		c-0.1,0-0.2-0.2-0.2-0.6s0.1-0.6,0.2-0.6l4.3,0.1c2.2,0.1,4.1,0.2,5.6,0.2s3.3-0.1,5.7-0.2L357.6,261.2L357.6,261.2z M407.9,310.4
		c0-0.1,0.1-0.2,0.4-0.2c0.2,0,0.4,0.1,0.5,0.2c0.2,0.1,0.3,0.1,0.3,0.2c-0.7,5.3-1,10.2-1,14.6c0,0.6-0.1,1-0.3,1.3
		c-0.2,0.2-0.6,0.3-1.3,0.3H361c-0.2,0-0.3-0.2-0.3-0.6s0.1-0.6,0.3-0.6c2.4,0,4.1-0.2,5.1-0.5c1.1-0.4,1.9-1,2.2-2
		c0.4-1,0.6-2.6,0.6-4.7v-48.5c0-2.1-0.2-3.6-0.6-4.6c-0.4-1-1.1-1.6-2.2-2c-1.1-0.4-2.8-0.6-5.1-0.6c-0.2,0-0.3-0.2-0.3-0.6
		s0.1-0.6,0.3-0.6h43.6c0.7,0,1,0.3,1,0.9l0.2,13.6c0,0.1-0.2,0.2-0.6,0.3c-0.4,0.1-0.6,0-0.6-0.2c-1.7-8-6.5-12-14.6-12h-4.2
		c-2.5,0-4.3,0.5-5.4,1.4c-1,0.9-1.6,2.5-1.6,4.6v21.4H389c7.7,0,11.5-2.6,11.5-7.8c0-0.2,0.2-0.3,0.5-0.3c0.4,0,0.6,0.1,0.6,0.3
		l-0.1,9.1l0.1,4.9c0.1,2.2,0.2,4,0.2,5.5c0,0.1-0.2,0.2-0.6,0.2s-0.6-0.1-0.6-0.2c0-6-3.9-9-11.7-9h-10v23.8c0,2.3,0.4,3.9,1.3,4.8
		c0.9,0.9,2.5,1.4,4.7,1.4h5.1C399.4,324,405.4,319.5,407.9,310.4L407.9,310.4z M484.7,325.5c0.2,0,0.3,0.2,0.3,0.6
		s-0.1,0.6-0.3,0.6h-16.9c-1.6,0-4.6-2.9-9-8.7c-4.3-5.9-9.6-14-15.9-24.5c-1.1,0.2-2.3,0.3-3.5,0.3c-2.6,0-4.4,0-5.5-0.1v24.5
		c0,2.2,0.2,3.7,0.5,4.7c0.4,1,1.1,1.6,2.2,2c1.1,0.4,2.9,0.5,5.2,0.5c0.1,0,0.2,0.2,0.2,0.6s-0.1,0.6-0.2,0.6c-2.3,0-4.1,0-5.4-0.1
		l-7.8-0.1l-7.5,0.1c-1.3,0.1-3.1,0.1-5.5,0.1c-0.2,0-0.3-0.2-0.3-0.6s0.1-0.6,0.3-0.6c2.4,0,4.1-0.2,5.1-0.5c1.1-0.4,1.9-1,2.3-2
		c0.4-1,0.6-2.6,0.6-4.7v-48.5c0-2.1-0.2-3.6-0.6-4.6c-0.4-1-1.1-1.6-2.2-2c-1.1-0.4-2.8-0.6-5.1-0.6c-0.1,0-0.2-0.2-0.2-0.6
		s0.1-0.6,0.2-0.6l5.5,0.1c3.1,0.1,5.6,0.2,7.4,0.2c2.1,0,4.3-0.1,6.6-0.3c0.8-0.1,1.9-0.1,3-0.2c1.2-0.1,2.5-0.1,3.9-0.1
		c6.2,0,11,1.1,14.4,3.5c3.4,2.3,5,5.6,5,9.8c0,3.3-1,6.4-2.9,9.3c-2,2.9-4.5,5.3-7.6,7.1c5.7,8.8,10.5,15.7,14.4,20.8
		c3.9,5,7.4,8.6,10.4,10.8S481.8,325.5,484.7,325.5L484.7,325.5z M433.9,290.8c1.7,0.3,3.7,0.4,6.1,0.4c4.2,0,7.1-0.9,8.8-2.8
		c1.7-1.9,2.5-5.4,2.5-10.4c0-5.7-1-9.6-2.8-11.7c-1.9-2.2-4.5-3.4-8-3.4c-2.5,0-4.3,0.5-5.2,1.5c-0.9,1-1.4,2.8-1.4,5.6V290.8
		L433.9,290.8z"/>
	<path class="st0" d="M40.2,245.8v-75.5h4.4v75.5H40.2z M61.4,245.8v-75.5h4.4l45.9,67.6v-67.6h4.4v75.5h-4.4l-45.9-67.7v67.7
		L61.4,245.8L61.4,245.8z M153.3,245.8v-71.1h-27.7v-4.4h59.7v4.4h-27.7v71.1H153.3L153.3,245.8z M194.8,245.8v-75.5h46.1v4.4h-41.7
		v31.1h35.4v4.4h-35.4v31.1h41.7v4.4L194.8,245.8L194.8,245.8z M254.5,245.8v-75.5h27.8c0.7,0,1.5,0,2.2,0.1c0.8,0,1.6,0.1,2.6,0.3
		c3.6,0.6,6.8,1.9,9.4,4c2.7,2.1,4.8,4.7,6.2,7.9c1.5,3.1,2.2,6.6,2.2,10.4c0,5.4-1.5,10.1-4.4,14.1c-2.9,4.1-6.9,6.6-12,7.8
		l-0.8,0.7h-28.8v30.2L254.5,245.8L254.5,245.8z M301.8,245.8l-14.9-30.7l3.8-2.8l16.4,33.5L301.8,245.8L301.8,245.8z M258.9,211.2
		h23.4c0.6,0,1.3,0,2.1-0.1c0.8-0.1,1.7-0.2,2.5-0.3c2.9-0.6,5.3-1.7,7.3-3.5c2-1.8,3.5-3.9,4.5-6.3c1-2.5,1.5-5.2,1.5-8
		s-0.5-5.5-1.5-8c-1-2.5-2.5-4.6-4.5-6.4c-2-1.8-4.4-2.9-7.3-3.5c-0.8-0.2-1.7-0.3-2.5-0.3c-0.8-0.1-1.5-0.1-2.1-0.1h-23.4V211.2
		L258.9,211.2z M314.4,245.8l27.5-75.5h4.7l27.5,75.5h-4.7l-26.7-73.5h3.1l-26.6,73.5H314.4L314.4,245.8z M324.9,226.2V222h38.6v4.2
		H324.9z M412.2,247.4c-7.5,0-13.8-1.7-18.8-5c-5-3.4-8.8-8-11.3-13.9c-2.5-5.9-3.8-12.7-3.8-20.4s1.3-14.5,3.8-20.4
		c2.5-5.9,6.3-10.5,11.3-13.9c5-3.4,11.3-5,18.8-5c8.8,0,15.9,2.3,21.3,6.9c5.4,4.6,9,10.7,10.9,18.3l-4.6,1.1
		c-1.7-6.7-4.8-12-9.4-15.9c-4.6-4-10.6-6-18.1-6c-6.5,0-11.8,1.5-16.1,4.4c-4.3,3-7.5,7.1-9.6,12.4c-2.2,5.2-3.3,11.3-3.4,18.1
		s1,12.8,3.1,18.1c2.2,5.2,5.4,9.4,9.8,12.4c4.4,3,9.8,4.4,16.2,4.4c7.5,0,13.6-2,18.1-6c4.6-4,7.8-9.3,9.4-15.9l4.6,1.1
		c-1.9,7.6-5.5,13.8-10.9,18.4C428.1,245.1,421,247.4,412.2,247.4L412.2,247.4z M478.4,245.8v-71.1h-27.7v-4.4h59.7v4.4h-27.7v71.1
		H478.4L478.4,245.8z M520.9,245.8v-75.5h4.4v75.5H520.9z M562.8,245.8l-27.5-75.5h4.7l25,69.1l25.2-69.1h4.7l-27.5,75.5H562.8
		L562.8,245.8z M603.9,245.8v-75.5H650v4.4h-41.7v31.1h35.4v4.4h-35.4v31.1H650v4.4L603.9,245.8L603.9,245.8z"/>
	<path class="st0" d="M120,158.7c-5.6,0-10.6-1-14.8-2.9c-4.2-1.9-7.8-4.6-10.6-8.1c-2.8-3.5-5-7.6-6.4-12.4
		c-1.4-4.8-2.1-10.1-2.1-15.9c0-7.7,1.3-14.5,3.8-20.3c2.5-5.9,6.3-10.5,11.3-13.8c5-3.3,11.3-5,18.8-5s13.2,1.7,18,5.1
		c4.8,3.3,8.2,7.7,10.2,13.1l-4.3,1.8c-1.8-4.7-4.8-8.5-8.9-11.3c-4.1-2.8-9.1-4.2-15-4.2c-6.5,0-11.8,1.5-16.1,4.4
		c-4.3,2.9-7.5,7-9.6,12.3c-2.2,5.2-3.3,11.3-3.3,18.1s1,12.8,3.1,18.1c2.2,5.2,5.4,9.4,9.8,12.4c4.4,3,9.8,4.4,16.2,4.4
		s11.7-1.3,15.7-3.8c4-2.6,6.9-6.2,8.7-10.7c1.9-4.6,2.8-9.9,2.8-15.9H127v-4.4h24.6c0.1,1,0.2,1.8,0.2,2.6c0,0.8,0.1,1.4,0.1,1.9
		c0,6.6-1.1,12.5-3.3,17.8c-2.2,5.2-5.7,9.4-10.4,12.5C133.5,157.2,127.4,158.7,120,158.7L120,158.7z M163.3,157.2V81.7h27.8
		c0.7,0,1.5,0,2.2,0.1c0.8,0,1.6,0.1,2.6,0.3c3.6,0.6,6.8,1.9,9.4,4c2.7,2.1,4.8,4.7,6.2,7.9c1.5,3.1,2.2,6.6,2.2,10.4
		c0,5.4-1.5,10.1-4.4,14.2s-6.9,6.6-11.9,7.8l-0.8,0.7h-28.8v30.2L163.3,157.2L163.3,157.2z M210.6,157.2l-14.9-30.7l3.8-2.8
		l16.4,33.5H210.6z M167.7,122.6h23.4c0.6,0,1.3,0,2.1-0.1c0.8-0.1,1.7-0.2,2.5-0.3c2.9-0.6,5.3-1.7,7.3-3.5c2-1.8,3.5-3.9,4.5-6.3
		c1-2.5,1.5-5.2,1.5-8s-0.5-5.5-1.5-8c-1-2.5-2.5-4.7-4.5-6.4c-2-1.8-4.4-2.9-7.3-3.5c-0.8-0.2-1.7-0.3-2.5-0.3
		c-0.8-0.1-1.5-0.1-2.1-0.1h-23.4V122.6L167.7,122.6z M223.2,157.2l27.5-75.5h4.7l27.5,75.5h-4.7l-26.7-73.5h3.1l-26.6,73.5H223.2
		L223.2,157.2z M233.7,137.6v-4.2h38.6v4.2H233.7z M293.4,157.2V81.7h27.8c0.7,0,1.5,0,2.2,0.1c0.8,0,1.6,0.1,2.6,0.3
		c3.6,0.6,6.8,1.9,9.4,4c2.7,2.1,4.8,4.7,6.2,7.9c1.5,3.1,2.2,6.6,2.2,10.4s-0.7,7.2-2.2,10.4c-1.4,3.1-3.5,5.8-6.2,7.9
		c-2.7,2.1-5.8,3.4-9.4,3.9c-0.9,0.1-1.8,0.2-2.6,0.3s-1.5,0.1-2.2,0.1h-23.4v30.2L293.4,157.2L293.4,157.2z M297.8,122.6h23.4
		c0.6,0,1.3,0,2.1-0.1c0.8-0.1,1.7-0.2,2.5-0.3c2.9-0.6,5.3-1.7,7.3-3.5c2-1.8,3.5-3.9,4.5-6.3c1-2.5,1.5-5.2,1.5-8s-0.5-5.5-1.5-8
		c-1-2.5-2.5-4.7-4.5-6.4c-2-1.8-4.4-2.9-7.3-3.5c-0.8-0.2-1.7-0.3-2.5-0.3c-0.8-0.1-1.5-0.1-2.1-0.1h-23.4V122.6L297.8,122.6z
		 M355.4,157.2V81.7h4.4v35.5h45.7V81.7h4.4v75.5h-4.4v-35.5h-45.7v35.5H355.4z M426.7,157.2V81.7h4.4v75.5H426.7z M477.5,158.7
		c-7.5,0-13.8-1.7-18.8-5c-5-3.4-8.8-8-11.3-13.9c-2.5-5.9-3.8-12.7-3.8-20.4s1.3-14.5,3.8-20.4c2.5-5.9,6.3-10.5,11.3-13.9
		c5-3.3,11.3-5,18.8-5c8.8,0,15.9,2.3,21.3,6.9c5.4,4.6,9,10.7,10.9,18.3l-4.6,1.1c-1.7-6.7-4.8-12-9.4-15.9c-4.6-4-10.6-6-18.1-6
		c-6.5,0-11.8,1.5-16.1,4.4c-4.3,3-7.5,7.1-9.6,12.4c-2.2,5.2-3.3,11.3-3.4,18.1c-0.1,6.8,1,12.8,3.1,18.1c2.2,5.2,5.4,9.4,9.8,12.4
		c4.4,3,9.8,4.4,16.2,4.4c7.5,0,13.6-2,18.1-6c4.6-4,7.8-9.3,9.4-15.9l4.6,1.1c-1.9,7.6-5.5,13.8-10.9,18.4
		C493.4,156.4,486.3,158.7,477.5,158.7L477.5,158.7z"/>
	<path class="st0" d="M536.5,157.9c-2.1,0-4-0.3-5.8-0.9s-3.2-1.5-4.4-2.8c-0.9-0.9-1.6-2-2-3.2s-0.7-2.5-0.8-3.8
		c0-1.2,0.2-2.5,0.5-3.8c0.4-1.3,1-2.4,1.8-3.4c0.6-0.8,1.3-1.4,2.1-1.9c0.8-0.5,1.6-0.9,2.5-1.2c-1.5-1.5-2.6-2.8-3.4-4.1
		c-0.8-1.2-1.2-2.7-1.2-4.6s0.4-3.4,1.3-4.9c0.8-1.5,2-2.7,3.6-3.4c0.9-0.4,1.8-0.8,2.7-1c1-0.2,1.9-0.3,2.8-0.3
		c1.3,0,2.5,0.2,3.8,0.5s2.3,0.8,3.2,1.5c0.6,0.4,1.2,0.9,1.7,1.5c0.5,0.6,0.9,1.2,1.2,1.9l-2,0.9c-0.5-1-1.2-1.9-2.2-2.6
		c-0.8-0.5-1.6-0.9-2.6-1.2c-1-0.2-1.9-0.4-2.9-0.4c-1.7,0-3.3,0.3-4.8,1c-1.2,0.6-2,1.4-2.7,2.5c-0.6,1.1-0.9,2.3-0.9,3.7
		c0,1.2,0.2,2.2,0.5,3c0.4,0.8,1,1.7,1.8,2.6c0.4,0.5,0.9,0.9,1.3,1.4c0.5,0.4,1,0.9,1.5,1.3l13.5,12.6c0.1-0.6,0.2-1.1,0.2-1.6
		c0-0.5,0-1,0-1.5l0-6.1h2.3v5.1c0,1.7-0.1,2.9-0.2,3.8c-0.1,0.9-0.3,1.6-0.5,2.1l5,4.6l-1.5,1.6l-4.5-4.2c-0.4,0.7-1,1.4-1.7,2
		c-0.8,0.6-1.5,1.1-2.2,1.5c-1.1,0.6-2.2,1-3.5,1.1C539,157.8,537.8,157.9,536.5,157.9L536.5,157.9z M536.4,155.8
		c1.3,0,2.4-0.1,3.5-0.2c1-0.2,2-0.5,2.9-1.1c1.1-0.7,1.9-1.3,2.3-1.8c0.5-0.5,0.8-1,1-1.4l-13.7-12.5c-0.9,0.3-1.8,0.6-2.6,1.1
		c-0.8,0.5-1.5,1-2.1,1.7c-0.6,0.8-1.1,1.6-1.4,2.6c-0.3,1-0.4,2-0.4,3c0,1,0.2,2,0.5,3c0.3,0.9,0.8,1.8,1.5,2.5
		c0.9,1.1,2.2,1.8,3.7,2.4C533.2,155.5,534.8,155.8,536.4,155.8L536.4,155.8z"/>
</g>
<g id="beta_icon">
	<g>
		<path class="st0" d="M486.1,275.1v-8.6h3.3c0.5,0,0.9,0.1,1.3,0.3c0.4,0.2,0.6,0.5,0.8,0.8s0.3,0.7,0.3,1.1c0,0.5-0.1,0.9-0.4,1.2
			s-0.6,0.6-1,0.8l0-0.3c0.6,0.2,1,0.4,1.3,0.8c0.3,0.4,0.5,0.9,0.5,1.5c0,0.5-0.1,0.9-0.3,1.3s-0.5,0.6-0.9,0.8s-0.8,0.3-1.3,0.3
			H486.1z M487,270.1h2.4c0.3,0,0.5-0.1,0.8-0.2c0.2-0.1,0.4-0.3,0.5-0.5s0.2-0.5,0.2-0.8c0-0.4-0.1-0.7-0.4-1s-0.6-0.4-1.1-0.4H487
			V270.1z M487,274.2h2.5c0.4,0,0.7-0.1,0.9-0.2c0.3-0.1,0.5-0.3,0.7-0.5c0.2-0.2,0.2-0.5,0.2-0.8c0-0.3-0.1-0.6-0.2-0.9
			c-0.1-0.3-0.3-0.5-0.6-0.6c-0.3-0.2-0.5-0.2-0.9-0.2H487V274.2z"/>
		<path class="st0" d="M494.4,275.1v-8.6h5.4v0.8h-4.5v3h3.8v0.8h-3.8v3.1h4.5v0.8H494.4z"/>
		<path class="st0" d="M504.4,275.1v-7.8h-3v-0.8h6.9v0.8h-3v7.8H504.4z"/>
		<path class="st0" d="M509.3,275.1l3-8.6h1.2l3,8.6h-0.9l-2.8-8.1h0.3l-2.8,8.1H509.3z M510.7,273v-0.8h4.5v0.8H510.7z"/>
	</g>
	<path class="st1" d="M516.1,280.1h-29.7c-5.2,0-9.3-4.2-9.3-9.3l0,0c0-5.2,4.2-9.3,9.3-9.3h29.7c5.2,0,9.3,4.2,9.3,9.3l0,0
		C525.5,275.9,521.3,280.1,516.1,280.1z"/>
</g>
</svg>
