<svg width="32" height="32" viewBox="0 0 32 32" fill="none" xmlns="http://www.w3.org/2000/svg">
<rect width="32" height="32" rx="16" fill="#262426"/>
<path d="M11.8253 9.6001C12.4385 9.6001 12.9983 9.65569 13.5046 9.7657C14.0109 9.87572 14.4432 10.0564 14.8039 10.3077C15.1645 10.559 15.4444 10.8925 15.6435 11.3094C15.8426 11.7263 15.9416 12.2405 15.9416 12.8532C15.9416 13.5144 15.7937 14.0657 15.499 14.5069C15.2043 14.9482 14.7675 15.3095 14.1906 15.5909C14.9848 15.8237 15.5775 16.2313 15.9689 16.8127C16.3603 17.394 16.5559 18.0958 16.5559 18.9169C16.5559 19.5782 16.4297 20.1514 16.1771 20.6355C15.9245 21.1196 15.5843 21.5145 15.1566 21.8203C14.7288 22.1271 14.2418 22.353 13.6946 22.5C13.1439 22.6471 12.5762 22.7212 12.0073 22.7201H5.76013V9.6001H11.8253ZM11.4647 14.9099C11.9698 14.9099 12.3851 14.7872 12.7105 14.5428C13.0358 14.2973 13.1985 13.9001 13.1974 13.3488C13.1974 13.0431 13.1428 12.7918 13.0347 12.5961C12.9266 12.4004 12.7821 12.2463 12.6012 12.1363C12.4203 12.0263 12.2133 11.9499 11.9789 11.907C11.7377 11.8642 11.4931 11.8422 11.2474 11.8433H8.59533V14.9123L11.4647 14.9099ZM11.6273 20.4769C11.8947 20.478 12.1609 20.4502 12.4215 20.3946C12.6741 20.3391 12.897 20.2476 13.0893 20.119C13.2816 19.9905 13.4352 19.8156 13.5501 19.5956C13.6639 19.3755 13.7219 19.093 13.7219 18.7502C13.7219 18.0773 13.5353 17.5955 13.1621 17.3083C12.789 17.02 12.2952 16.8764 11.682 16.8764H8.59533V20.478L11.6273 20.4769ZM20.1216 20.2012C20.5061 20.5811 21.0602 20.771 21.7826 20.771C22.3003 20.771 22.7451 20.639 23.1183 20.3761C23.4915 20.1132 23.7202 19.8341 23.8044 19.54H26.0605C25.6998 20.6795 25.1457 21.4937 24.3994 21.9835C23.653 22.4734 22.7508 22.7189 21.6916 22.7189C20.9578 22.7189 20.2956 22.5996 19.7063 22.3611C19.117 22.1225 18.6175 21.782 18.2079 21.3408C17.7983 20.8996 17.4821 20.3738 17.2602 19.7612C17.0383 19.1485 16.9268 18.4745 16.9268 17.7403C16.9268 17.0304 17.0406 16.3691 17.2693 15.7565C17.498 15.1439 17.8234 14.6146 18.2443 14.1676C18.6653 13.7206 19.1682 13.3685 19.7518 13.1114C20.3355 12.8543 20.9828 12.7258 21.6928 12.7258C22.4869 12.7258 23.1786 12.8821 23.7691 13.1948C24.3584 13.5075 24.8431 13.9267 25.222 14.4536C25.6008 14.9806 25.875 15.5805 26.0434 16.2545C26.2118 16.9285 26.2721 17.6326 26.2243 18.368H19.4913C19.5265 19.2099 19.737 19.8225 20.1216 20.2012ZM23.0193 15.2041C22.7121 14.8613 22.2457 14.6899 21.6199 14.6899C21.2104 14.6899 20.8702 14.7605 20.6005 14.9007C20.3298 15.042 20.1136 15.2157 19.9509 15.4241C19.7882 15.6326 19.6744 15.8526 19.6084 16.0854C19.5425 16.3182 19.5026 16.5266 19.4913 16.7096H23.661C23.5393 16.0495 23.3254 15.5469 23.0193 15.2041ZM19.0521 10.266H24.2617V11.7368H19.0521V10.266Z" fill="white"/>
</svg>
