<svg width="32" height="32" viewBox="0 0 32 32" fill="none" xmlns="http://www.w3.org/2000/svg">
<rect width="32" height="32" rx="16" fill="#262426"/>
<path d="M16.0001 8.39208C18.478 8.39208 18.7714 8.40151 19.75 8.44615C20.6548 8.48745 21.1461 8.63863 21.4732 8.76568C21.9063 8.93402 22.2155 9.13515 22.5402 9.45987C22.8649 9.78459 23.066 10.0938 23.2344 10.5269C23.3614 10.8539 23.5126 11.3453 23.5539 12.2501C23.5986 13.2286 23.608 13.5221 23.608 16C23.608 18.4779 23.5986 18.7713 23.5539 19.7499C23.5126 20.6547 23.3614 21.146 23.2344 21.4731C23.066 21.9062 22.8649 22.2154 22.5402 22.5401C22.2155 22.8648 21.9063 23.066 21.4732 23.2343C21.1461 23.3614 20.6548 23.5125 19.75 23.5538C18.7716 23.5985 18.4781 23.6079 16.0001 23.6079C13.522 23.6079 13.2286 23.5985 12.2502 23.5538C11.3454 23.5125 10.854 23.3614 10.527 23.2343C10.0938 23.066 9.78468 22.8648 9.45996 22.5401C9.13524 22.2154 8.93411 21.9062 8.7658 21.4731C8.63871 21.146 8.48753 20.6547 8.44624 19.7499C8.40159 18.7714 8.39216 18.4779 8.39216 16C8.39216 13.5221 8.40159 13.2286 8.44624 12.2501C8.48753 11.3453 8.63871 10.8539 8.7658 10.5269C8.93411 10.0938 9.13524 9.78459 9.45996 9.45987C9.78468 9.13515 10.0938 8.93402 10.527 8.76568C10.854 8.63863 11.3454 8.48745 12.2501 8.44615C13.2287 8.40151 13.5222 8.39208 16.0001 8.39208ZM16.0001 6.71997C13.4798 6.71997 13.1638 6.73065 12.174 6.77582C11.1862 6.8209 10.5116 6.97776 9.9213 7.20718C9.31106 7.44433 8.79354 7.76165 8.27764 8.27755C7.76173 8.79345 7.44442 9.31098 7.20726 9.92122C6.97784 10.5115 6.82099 11.1861 6.7759 12.1739C6.73074 13.1637 6.72009 13.4797 6.72009 16C6.72009 18.5203 6.73074 18.8363 6.7759 19.8261C6.82099 20.8139 6.97784 21.4884 7.20726 22.0788C7.44442 22.689 7.76173 23.2065 8.27764 23.7224C8.79354 24.2383 9.31106 24.5556 9.9213 24.7928C10.5116 25.0222 11.1862 25.1791 12.174 25.2242C13.1638 25.2693 13.4798 25.28 16.0001 25.28C18.5204 25.28 18.8364 25.2693 19.8262 25.2242C20.814 25.1791 21.4885 25.0222 22.0788 24.7928C22.6891 24.5556 23.2066 24.2383 23.7225 23.7224C24.2384 23.2065 24.5557 22.689 24.7929 22.0788C25.0223 21.4884 25.1792 20.8139 25.2242 19.8261C25.2694 18.8363 25.2801 18.5203 25.2801 16C25.2801 13.4797 25.2694 13.1637 25.2242 12.1739C25.1792 11.1861 25.0223 10.5115 24.7929 9.92122C24.5557 9.31098 24.2384 8.79345 23.7225 8.27755C23.2066 7.76165 22.6891 7.44433 22.0788 7.20718C21.4885 6.97776 20.814 6.8209 19.8262 6.77582C18.8364 6.73065 18.5204 6.71997 16.0001 6.71997ZM16.0001 11.2346C13.3682 11.2346 11.2347 13.3681 11.2347 16C11.2347 18.6318 13.3682 20.7654 16.0001 20.7654C18.6319 20.7654 20.7655 18.6318 20.7655 16C20.7655 13.3681 18.6319 11.2346 16.0001 11.2346ZM16.0001 19.0933C14.2917 19.0933 12.9067 17.7084 12.9067 16C12.9067 14.2916 14.2917 12.9066 16.0001 12.9066C17.7085 12.9066 19.0934 14.2916 19.0934 16C19.0934 17.7084 17.7085 19.0933 16.0001 19.0933ZM22.0674 11.0463C22.0674 11.6613 21.5688 12.1599 20.9538 12.1599C20.3387 12.1599 19.8401 11.6613 19.8401 11.0463C19.8401 10.4313 20.3387 9.93271 20.9538 9.93271C21.5688 9.93271 22.0674 10.4313 22.0674 11.0463Z" fill="#EFEFF0"/>
</svg>
