<svg width="32" height="32" viewBox="0 0 32 32" fill="none" xmlns="http://www.w3.org/2000/svg">
<rect width="32" height="32" rx="16" fill="#262426"/>
<path d="M5.12 16.0001C5.12 14.0272 5.60598 12.2066 6.57791 10.5384C7.54987 8.87008 8.86998 7.54999 10.5382 6.57804C12.2065 5.60608 14.0271 5.12012 16 5.12012C17.9729 5.12012 19.7935 5.60608 21.4618 6.57804C23.13 7.54999 24.4501 8.87008 25.4221 10.5384C26.394 12.2066 26.88 14.0272 26.88 16.0001C26.88 17.973 26.394 19.7936 25.4221 21.4619C24.4501 23.1301 23.13 24.4502 21.4618 25.4222C19.7935 26.3941 17.9729 26.8801 16 26.8801C14.0271 26.8801 12.2065 26.3941 10.5382 25.4222C8.86998 24.4502 7.54987 23.1301 6.57791 21.4619C5.60598 19.7936 5.12 17.973 5.12 16.0001ZM6.92607 16.0001C6.92607 18.2632 7.68767 20.2578 9.21087 21.9841C9.90719 20.6205 11.0097 19.3222 12.5184 18.0891C14.0271 16.856 15.4995 16.0799 16.9357 15.7608C16.7181 15.253 16.5077 14.7961 16.3046 14.3899C13.8095 15.1877 11.1113 15.5867 8.20991 15.5867C7.64415 15.5867 7.22347 15.5794 6.94783 15.5649C6.94783 15.623 6.94422 15.6955 6.93695 15.7825C6.92971 15.8696 6.92607 15.9421 6.92607 16.0001ZM7.20895 13.7588C7.52811 13.7878 7.99958 13.8024 8.62335 13.8024C11.046 13.8024 13.3453 13.476 15.5213 12.8232C14.4188 10.8648 13.2075 9.23276 11.8874 7.92716C10.7413 8.50743 9.75851 9.31255 8.93887 10.3425C8.11926 11.3725 7.54262 12.5113 7.20895 13.7588ZM10.4512 23.1592C12.0905 24.4357 13.9401 25.074 16 25.074C17.0735 25.074 18.1397 24.8709 19.1987 24.4648C18.9086 21.9841 18.3428 19.5833 17.5014 17.2622C16.1668 17.5523 14.8213 18.2849 13.465 19.46C12.1086 20.635 11.104 21.8681 10.4512 23.1592ZM13.7805 7.23084C15.0571 8.55095 16.2394 10.1974 17.3274 12.1704C19.3003 11.3435 20.7872 10.2918 21.7882 9.01516C20.1054 7.62252 18.176 6.9262 16 6.9262C15.2602 6.9262 14.5203 7.02775 13.7805 7.23084ZM18.1107 13.7153C18.3283 14.1795 18.5749 14.767 18.8506 15.4779C19.9241 15.3763 21.0918 15.3256 22.3539 15.3256C23.2533 15.3256 24.1455 15.3473 25.0304 15.3908C24.9143 13.4179 24.2035 11.6626 22.8979 10.1249C21.955 11.5321 20.3593 12.7289 18.1107 13.7153ZM19.3946 17.0011C20.1344 19.1481 20.6349 21.3531 20.896 23.6161C22.042 22.8763 22.9777 21.9261 23.703 20.7656C24.4284 19.605 24.8636 18.3502 25.0086 17.0011C23.9497 16.9285 22.985 16.8923 22.1146 16.8923C21.3167 16.8923 20.41 16.9285 19.3946 17.0011Z" fill="#EFEFF0"/>
</svg>
