<svg width="33" height="32" viewBox="0 0 33 32" fill="none" xmlns="http://www.w3.org/2000/svg">
<rect x="0.5" width="32" height="32" rx="16" fill="#262426"/>
<g clip-path="url(#clip0_688_1423)">
<path d="M26.0138 22.4327C26.0138 22.5048 26.0008 22.5769 25.9914 22.672H22.2674V22.2517C22.2674 20.437 22.2783 18.6223 22.2602 16.8083C22.2643 16.3527 22.2091 15.8986 22.0961 15.4571C21.7345 14.1594 20.2616 13.6915 19.1827 14.5076C18.5999 14.9489 18.3114 15.5444 18.315 16.2827C18.32 18.2769 18.315 20.2719 18.315 22.2668V22.6864H14.5859V11.4651H18.294V12.884L18.4205 12.9777C18.4309 12.9103 18.4516 12.8449 18.482 12.7837C19.5059 11.3511 20.9405 10.9661 22.5936 11.2517C24.193 11.5271 25.2307 12.5004 25.6834 14.0354C25.8779 14.7031 25.9829 15.3935 25.9957 16.0887C26.0362 18.2026 26.0131 20.318 26.0138 22.4327Z" fill="#EFEFF0"/>
<path d="M12.6676 8.45722C12.4507 9.33826 11.6394 9.89558 10.5858 9.89053C9.09188 9.88404 8.13666 8.59781 8.63343 7.25894C9.00294 6.25966 10.2243 5.75497 11.3848 6.11763C12.3762 6.42765 12.9236 7.42116 12.6676 8.45722Z" fill="#EFEFF0"/>
<path d="M12.4542 11.4658H8.75195V22.6757H12.4542V11.4658Z" fill="#EFEFF0"/>
</g>
<defs>
<clipPath id="clip0_688_1423">
<rect width="17.52" height="16.6857" fill="white" transform="translate(8.5 6)"/>
</clipPath>
</defs>
</svg>
